<svg width="632" height="535" viewBox="0 0 632 535" fill="none" xmlns="http://www.w3.org/2000/svg">
<g clip-path="url(#clip0)">
<rect width="632" height="535" fill="#FCDF6C"/>
<path d="M269.418 362.786C269.418 362.786 353.349 351.241 382.725 332.962C412.101 314.682 630.321 306.023 630.321 362.786C630.321 419.549 379.368 444.564 379.368 444.564L247.596 435.905L269.418 362.786Z" fill="#FBBEBE"/>
<path opacity="0.1" d="M269.418 362.786C269.418 362.786 353.349 351.241 382.725 332.962C412.101 314.682 630.321 306.023 630.321 362.786C630.321 419.549 379.368 444.564 379.368 444.564L247.596 435.905L269.418 362.786Z" fill="black"/>
<path d="M293.758 352.203L276.133 410.891L0 414.739V328.151C0 328.151 105.753 300.251 189.684 359.9C189.684 359.9 288.722 346.431 293.758 352.203Z" fill="#7478D7"/>
<path opacity="0.1" d="M293.758 352.109L276.133 410.796L0 414.644V328.056C0 328.056 105.753 300.156 189.684 359.805C189.684 359.805 288.722 346.336 293.758 352.109Z" fill="black"/>
<path d="M609.462 327.67C609.462 330.949 603.047 333.383 602.416 336.546C601.791 339.684 605.602 344.454 604.396 347.451C603.15 350.514 601.677 353.45 599.994 356.227C598.414 358.82 593.533 358.441 591.532 360.873C589.573 363.081 587.498 365.15 585.318 367.068C583.194 369.092 580.317 369.517 577.903 371.38C575.607 373.152 575.885 379.651 573.345 381.265C570.918 382.807 567.203 381.566 564.571 382.952C562.044 384.283 560.712 389.094 558.01 390.27C555.405 391.405 552.181 390.916 549.426 391.899C546.761 392.85 543.778 392.696 540.985 393.497C538.273 394.274 536.201 398.935 533.379 399.563C530.63 400.176 527.409 398.543 524.566 399.006C521.79 399.459 518.561 395.432 515.706 395.737C512.911 396.035 510.277 397.9 507.414 398.05C504.608 398.198 501.833 399.615 498.969 399.615C496.107 399.615 493.152 402.693 490.346 402.546C487.484 402.395 484.892 397.729 482.097 397.43C479.241 397.126 475.835 402 473.058 401.547C470.216 401.083 467.964 396.312 465.215 395.7C462.393 395.071 458.748 398.482 456.035 397.704C453.241 396.903 451.583 391.352 448.917 390.401C446.163 389.418 442.749 390.749 440.144 389.615C437.442 388.438 434.151 388.627 431.624 387.296C428.991 385.911 427.102 382.631 424.675 381.089C422.135 379.476 420.964 375.474 418.668 373.702C416.254 371.838 412.574 372.076 410.451 370.052C408.209 367.914 404.009 367.803 402.117 365.503C400.115 363.071 399.306 358.987 397.726 356.394C396.062 353.663 399.328 347.888 398.166 345.001C396.961 342.005 391.92 340.788 391.295 337.652C390.65 334.375 390.319 331.028 390.308 327.67C390.308 324.391 394.618 321.885 395.249 318.722C395.875 315.585 392.702 311.079 393.908 308.083C395.07 305.195 394.921 300.757 396.586 298.026C398.166 295.432 402.109 294.416 404.11 291.984C406.002 289.685 409.388 289.043 411.63 286.906C413.753 284.882 413.483 278.777 415.897 276.914C418.193 275.142 421.399 274.334 423.938 272.72C426.365 271.178 429.8 271.438 432.432 270.052C434.959 268.722 438.916 271.343 441.618 270.167C444.223 269.032 446.336 266.552 449.09 265.569C451.756 264.618 453.008 257.364 455.802 256.563C458.514 255.786 461.851 257.077 464.673 256.448C467.422 255.836 471.121 261.559 473.964 261.095C476.74 260.643 478.816 253.002 481.672 252.698C484.467 252.399 487.618 256.356 490.481 256.206C493.288 256.058 496.106 258.377 498.969 258.377C501.832 258.377 504.684 255.194 507.491 255.342C510.353 255.493 512.877 259.698 515.672 259.996C518.528 260.301 522.034 253.905 524.81 254.358C527.653 254.821 529.849 259.766 532.598 260.378C535.421 261.006 538.956 257.937 541.669 258.714C544.462 259.515 546.143 264.771 548.809 265.722C551.563 266.705 553.26 270.412 555.865 271.547C558.567 272.724 563.586 267.218 566.113 268.549C568.745 269.935 571.019 272.333 573.446 273.875C575.985 275.488 580.023 274.677 582.318 276.449C584.733 278.313 585.327 283.315 587.451 285.34C589.693 287.477 593.391 288.121 595.283 290.42C597.284 292.852 597.562 297.21 599.141 299.804C600.805 302.535 600.753 306.319 601.915 309.206C603.12 312.202 606.339 314.468 606.964 317.605C607.594 320.767 609.462 324.392 609.462 327.67Z" fill="#3F3D56"/>
<path d="M307.187 387.801C307.187 387.801 402.029 331.999 463.299 353.165C524.568 374.331 610.178 337.772 620.25 350.279C630.321 362.786 644.59 497.479 523.729 505.175C402.868 512.872 299.633 482.085 299.633 482.085L307.187 387.801Z" fill="#FBBEBE"/>
<path d="M284.852 381.858C284.852 381.858 322.295 379.142 320.616 394.535C318.938 409.929 317.259 529.227 307.187 532.114C297.116 535 217.381 535 184.648 535H0V350.556C0 350.556 130.932 341.62 196.398 379.142C196.398 379.142 275.107 377.839 284.852 381.858Z" fill="#7478D7"/>
<path d="M460.261 93.3605C456.683 93.5922 453.233 94.9616 450.296 97.3154C447.359 99.6691 445.052 102.914 443.634 106.686C439.477 118.206 444.83 131.738 452.866 140.138C460.902 148.539 471.225 153.34 480.604 159.652C493.201 168.129 504.521 179.897 510.825 195.003C517.128 210.108 517.798 228.82 510.389 243.251C503.512 256.646 491.007 264.662 479.081 272.056" stroke="#3F3D56" stroke-miterlimit="10"/>
<path d="M493.833 23.1281C490.256 23.3597 486.805 24.7292 483.868 27.0829C480.932 29.4367 478.625 32.6816 477.207 36.4539C473.049 47.9738 478.402 61.5056 486.438 69.906C494.474 78.3064 504.797 83.108 514.176 89.4194C526.774 97.8966 538.094 109.664 544.397 124.77C550.7 139.876 551.371 158.588 543.962 173.019C537.084 186.413 524.58 194.43 512.653 201.824" stroke="#3F3D56" stroke-miterlimit="10"/>
<path d="M604.217 39.2811C601.264 36.9536 597.804 35.6151 594.225 35.4154C590.646 35.2158 587.089 36.1629 583.953 38.1507C574.513 44.3423 571.519 58.7986 573.387 71.08C575.255 83.3615 580.853 94.402 584.899 105.974C590.333 121.517 592.999 138.766 589.916 155.134C586.833 171.501 577.37 186.768 563.805 192.979C551.213 198.745 537.044 196.309 523.666 193.786" stroke="#3F3D56" stroke-miterlimit="10"/>
<path d="M504.425 182.546C515.55 182.546 524.568 177.525 524.568 171.331C524.568 165.137 515.55 160.115 504.425 160.115C493.3 160.115 484.281 165.137 484.281 171.331C484.281 177.525 493.3 182.546 504.425 182.546Z" stroke="#3F3D56" stroke-miterlimit="10"/>
<path d="M548.069 172.925C559.194 172.925 568.212 167.904 568.212 161.71C568.212 155.516 559.194 150.495 548.069 150.495C536.944 150.495 527.926 155.516 527.926 161.71C527.926 167.904 536.944 172.925 548.069 172.925Z" stroke="#3F3D56" stroke-miterlimit="10"/>
<path d="M554.784 215.257C565.908 215.257 574.927 210.236 574.927 204.042C574.927 197.848 565.908 192.826 554.784 192.826C543.659 192.826 534.64 197.848 534.64 204.042C534.64 210.236 543.659 215.257 554.784 215.257Z" stroke="#3F3D56" stroke-miterlimit="10"/>
<path d="M550.587 109.427C561.712 109.427 570.73 104.406 570.73 98.2119C570.73 92.0179 561.712 86.9967 550.587 86.9967C539.462 86.9967 530.444 92.0179 530.444 98.2119C530.444 104.406 539.462 109.427 550.587 109.427Z" stroke="#3F3D56" stroke-miterlimit="10"/>
<path d="M500.229 102.693C511.353 102.693 520.372 97.6713 520.372 91.4773C520.372 85.2834 511.353 80.2621 500.229 80.2621C489.104 80.2621 480.085 85.2834 480.085 91.4773C480.085 97.6713 489.104 102.693 500.229 102.693Z" stroke="#3F3D56" stroke-miterlimit="10"/>
<path d="M522.89 78.6404C534.015 78.6404 543.033 73.6191 543.033 67.4252C543.033 61.2312 534.015 56.21 522.89 56.21C511.765 56.21 502.746 61.2312 502.746 67.4252C502.746 73.6191 511.765 78.6404 522.89 78.6404Z" stroke="#3F3D56" stroke-miterlimit="10"/>
<path d="M572.409 83.4508C583.534 83.4508 592.552 78.4296 592.552 72.2356C592.552 66.0416 583.534 61.0204 572.409 61.0204C561.284 61.0204 552.266 66.0416 552.266 72.2356C552.266 78.4296 561.284 83.4508 572.409 83.4508Z" stroke="#3F3D56" stroke-miterlimit="10"/>
<path d="M609.339 115.2C620.464 115.2 629.482 110.178 629.482 103.984C629.482 97.7905 620.464 92.7693 609.339 92.7693C598.214 92.7693 589.195 97.7905 589.195 103.984C589.195 110.178 598.214 115.2 609.339 115.2Z" stroke="#3F3D56" stroke-miterlimit="10"/>
<path d="M479.246 59.3985C490.371 59.3985 499.389 54.3773 499.389 48.1833C499.389 41.9893 490.371 36.9681 479.246 36.9681C468.121 36.9681 459.102 41.9893 459.102 48.1833C459.102 54.3773 468.121 59.3985 479.246 59.3985Z" stroke="#3F3D56" stroke-miterlimit="10"/>
<path d="M491.835 22.8403C502.96 22.8403 511.979 17.8191 511.979 11.6251C511.979 5.43113 502.96 0.409912 491.835 0.409912C480.71 0.409912 471.692 5.43113 471.692 11.6251C471.692 17.8191 480.71 22.8403 491.835 22.8403Z" stroke="#3F3D56" stroke-miterlimit="10"/>
<path d="M608.499 49.7777C619.624 49.7777 628.643 44.7565 628.643 38.5625C628.643 32.3685 619.624 27.3473 608.499 27.3473C597.374 27.3473 588.356 32.3685 588.356 38.5625C588.356 44.7565 597.374 49.7777 608.499 49.7777Z" stroke="#3F3D56" stroke-miterlimit="10"/>
<path d="M423.012 138.29C434.137 138.29 443.155 133.269 443.155 127.075C443.155 120.881 434.137 115.859 423.012 115.859C411.887 115.859 402.868 120.881 402.868 127.075C402.868 133.269 411.887 138.29 423.012 138.29Z" stroke="#3F3D56" stroke-miterlimit="10"/>
<path d="M492.675 132.517C503.8 132.517 512.818 127.496 512.818 121.302C512.818 115.108 503.8 110.087 492.675 110.087C481.55 110.087 472.531 115.108 472.531 121.302C472.531 127.496 481.55 132.517 492.675 132.517Z" stroke="#3F3D56" stroke-miterlimit="10"/>
<path d="M584.159 141.176C595.284 141.176 604.303 136.155 604.303 129.961C604.303 123.767 595.284 118.746 584.159 118.746C573.034 118.746 564.016 123.767 564.016 129.961C564.016 136.155 573.034 141.176 584.159 141.176Z" stroke="#3F3D56" stroke-miterlimit="10"/>
<path d="M535.479 145.024C546.604 145.024 555.623 140.003 555.623 133.809C555.623 127.615 546.604 122.594 535.479 122.594C524.354 122.594 515.336 127.615 515.336 133.809C515.336 140.003 524.354 145.024 535.479 145.024Z" stroke="#3F3D56" stroke-miterlimit="10"/>
<path d="M538.837 48.8155C549.962 48.8155 558.98 43.7943 558.98 37.6003C558.98 31.4063 549.962 26.3851 538.837 26.3851C527.712 26.3851 518.693 31.4063 518.693 37.6003C518.693 43.7943 527.712 48.8155 538.837 48.8155Z" stroke="#3F3D56" stroke-miterlimit="10"/>
<path d="M452.388 108.465C463.513 108.465 472.531 103.444 472.531 97.2499C472.531 91.0559 463.513 86.0347 452.388 86.0347C441.263 86.0347 432.244 91.0559 432.244 97.2499C432.244 103.444 441.263 108.465 452.388 108.465Z" stroke="#3F3D56" stroke-miterlimit="10"/>
<path d="M463.143 151.43C474.268 151.43 483.286 146.409 483.286 140.215C483.286 134.021 474.268 129 463.143 129C452.018 129 443 134.021 443 140.215C443 146.409 452.018 151.43 463.143 151.43Z" fill="#8BCBC7"/>
<path d="M464.138 151.759C475.263 151.759 484.282 146.738 484.282 140.544C484.282 134.35 475.263 129.329 464.138 129.329C453.013 129.329 443.995 134.35 443.995 140.544C443.995 146.738 453.013 151.759 464.138 151.759Z" stroke="#3F3D56" stroke-miterlimit="10"/>
<path d="M453.143 108.43C464.268 108.43 473.286 103.409 473.286 97.215C473.286 91.021 464.268 86 453.143 86C442.018 86 433 91.021 433 97.215C433 103.409 442.018 108.43 453.143 108.43Z" fill="#8BCBC7"/>
<path d="M492.143 22.43C503.268 22.43 512.286 17.409 512.286 11.215C512.286 5.021 503.268 0 492.143 0C481.018 0 472 5.021 472 11.215C472 17.409 481.018 22.43 492.143 22.43Z" fill="#8BCBC7"/>
<path d="M483.143 57.43C494.268 57.43 503.286 52.409 503.286 46.215C503.286 40.021 494.268 35 483.143 35C472.018 35 463 40.021 463 46.215C463 52.409 472.018 57.43 483.143 57.43Z" fill="#8BCBC7"/>
<path d="M540.143 48.43C551.268 48.43 560.286 43.409 560.286 37.215C560.286 31.021 551.268 26 540.143 26C529.018 26 520 31.021 520 37.215C520 43.409 529.018 48.43 540.143 48.43Z" fill="#8BCBC7"/>
<path d="M523.143 78.43C534.268 78.43 543.286 73.409 543.286 67.215C543.286 61.021 534.268 56 523.143 56C512.018 56 503 61.021 503 67.215C503 73.409 512.018 78.43 523.143 78.43Z" fill="#8BCBC7"/>
<path d="M500.143 102.43C511.268 102.43 520.286 97.409 520.286 91.215C520.286 85.021 511.268 80 500.143 80C489.018 80 480 85.021 480 91.215C480 97.409 489.018 102.43 500.143 102.43Z" fill="#8BCBC7"/>
<path d="M424.143 137.43C435.268 137.43 444.286 132.409 444.286 126.215C444.286 120.021 435.268 115 424.143 115C413.018 115 404 120.021 404 126.215C404 132.409 413.018 137.43 424.143 137.43Z" fill="#8BCBC7"/>
<path d="M495.143 131.43C506.268 131.43 515.286 126.409 515.286 120.215C515.286 114.021 506.268 109 495.143 109C484.018 109 475 114.021 475 120.215C475 126.409 484.018 131.43 495.143 131.43Z" fill="#8BCBC7"/>
<path d="M608.143 48.43C619.268 48.43 628.286 43.409 628.286 37.215C628.286 31.021 619.268 26 608.143 26C597.018 26 588 31.021 588 37.215C588 43.409 597.018 48.43 608.143 48.43Z" fill="#8BCBC7"/>
<path d="M572.143 83.43C583.268 83.43 592.286 78.409 592.286 72.215C592.286 66.021 583.268 61 572.143 61C561.018 61 552 66.021 552 72.215C552 78.409 561.018 83.43 572.143 83.43Z" fill="#8BCBC7"/>
<path d="M608.143 116.43C619.268 116.43 628.286 111.409 628.286 105.215C628.286 99.021 619.268 94 608.143 94C597.018 94 588 99.021 588 105.215C588 111.409 597.018 116.43 608.143 116.43Z" fill="#8BCBC7"/>
<path d="M552.143 108.43C563.268 108.43 572.286 103.409 572.286 97.215C572.286 91.021 563.268 86 552.143 86C541.018 86 532 91.021 532 97.215C532 103.409 541.018 108.43 552.143 108.43Z" fill="#8BCBC7"/>
<path d="M535.143 143.43C546.268 143.43 555.286 138.409 555.286 132.215C555.286 126.021 546.268 121 535.143 121C524.018 121 515 126.021 515 132.215C515 138.409 524.018 143.43 535.143 143.43Z" fill="#8BCBC7"/>
<path d="M508.143 182.43C519.268 182.43 528.286 177.409 528.286 171.215C528.286 165.021 519.268 160 508.143 160C497.018 160 488 165.021 488 171.215C488 177.409 497.018 182.43 508.143 182.43Z" fill="#8BCBC7"/>
<path d="M584.143 138.43C595.268 138.43 604.286 133.409 604.286 127.215C604.286 121.021 595.268 116 584.143 116C573.018 116 564 121.021 564 127.215C564 133.409 573.018 138.43 584.143 138.43Z" fill="#8BCBC7"/>
<path d="M550.143 171.43C561.268 171.43 570.286 166.409 570.286 160.215C570.286 154.021 561.268 149 550.143 149C539.018 149 530 154.021 530 160.215C530 166.409 539.018 171.43 550.143 171.43Z" fill="#8BCBC7"/>
<path d="M555.143 213.43C566.268 213.43 575.286 208.409 575.286 202.215C575.286 196.021 566.268 191 555.143 191C544.018 191 535 196.021 535 202.215C535 208.409 544.018 213.43 555.143 213.43Z" fill="#8BCBC7"/>
</g>
<defs>
<clipPath id="clip0">
<rect width="632" height="535" fill="white"/>
</clipPath>
</defs>
</svg>
