<svg width="741" height="785" viewBox="0 0 741 785" fill="none" xmlns="http://www.w3.org/2000/svg">
<g clip-path="url(#clip0)">
<rect width="1154" height="788" transform="translate(-413 -3)" fill="#FCDF6C"/>
<path opacity="0.1" d="M647.976 209.112C700.537 207.033 742.177 160.971 740.969 106.378C740.373 80.1555 729.922 55.2147 711.848 36.8867C693.775 18.5586 669.513 8.29751 644.249 8.29641H642.639C628.206 0.519983 612.12 -3.3597 595.863 -2.98512C579.606 -2.61054 563.701 2.00625 549.615 10.4398C534.172 1.16149 516.55 -3.4801 498.715 -2.96717C446.929 -1.59539 405.041 42.6123 404.514 96.4009C404.247 118.674 411.149 140.403 424.127 158.142C415.42 173.422 410.788 190.833 410.708 208.587C410.408 262.707 452.11 307.794 504.207 309.562C516.808 310.013 529.373 307.898 541.192 303.336C560.226 328.178 581.996 358.935 577.681 369.92C572.282 383.659 575.492 523.109 577.02 579.063C577.05 580.028 577.133 580.99 577.268 581.945C541.594 583.971 515.778 589.844 515.778 596.778C515.778 605.351 555.519 612.36 604.55 612.36C653.581 612.36 693.321 605.384 693.321 596.778C693.321 593.563 687.613 590.498 677.838 587.99C680.427 586.382 682.849 584.5 685.064 582.374C687.035 580.477 688.893 578.227 689.461 575.494C690.029 572.761 688.903 569.482 686.364 568.485C683.546 567.36 680.532 569.396 678.251 571.443C675.969 573.49 673.348 575.826 670.354 575.397C671.892 573.949 673.043 572.112 673.694 570.065C674.345 568.018 674.475 565.83 674.07 563.716C673.938 562.844 673.582 562.026 673.038 561.347C671.469 559.611 668.63 560.351 666.762 561.722C660.796 566.074 659.134 574.486 659.103 582.085C658.504 579.352 659.01 576.512 658.989 573.715C658.969 570.918 658.236 567.81 655.965 566.299C654.54 565.529 652.946 565.159 651.341 565.227C648.667 565.13 645.684 565.409 643.847 567.445C641.576 569.964 642.164 574.208 644.146 576.994C646.128 579.781 649.132 581.517 651.898 583.424L652.321 583.714C643.33 582.706 633.246 581.967 622.387 581.57C622.504 580.679 622.57 579.78 622.583 578.88C623.532 524.685 626.134 393.551 629.55 377.969C633.865 358.271 629.55 238.337 629.55 238.337C629.55 238.337 629.096 225.016 629.715 208.136C635.76 209.047 641.873 209.374 647.976 209.112ZM567.307 288.117C569.978 285.936 572.535 283.607 574.966 281.141L577.732 300.12L567.307 288.117Z" fill="#8BCBC7"/>
<path opacity="0.1" d="M500.037 400.903C509.3 400.502 518.044 396.352 524.397 389.341C530.751 382.331 534.208 373.017 534.03 363.393C533.852 353.769 530.053 344.599 523.445 337.847C516.837 331.095 507.945 327.297 498.674 327.266H498.086C492.799 324.424 486.91 323.006 480.958 323.143C475.006 323.279 469.183 324.966 464.022 328.048C456.927 323.739 448.611 322.122 440.495 323.472C432.379 324.823 424.967 329.057 419.524 335.452C414.081 341.847 410.946 350.006 410.654 358.534C410.362 367.063 412.931 375.432 417.923 382.212C414.199 388.768 412.523 396.361 413.123 403.947C413.724 411.533 416.573 418.739 421.278 424.576C425.984 430.412 432.315 434.593 439.401 436.543C446.487 438.493 453.981 438.116 460.853 435.465C467.842 444.574 475.821 455.827 474.272 459.878C472.29 464.926 473.467 516.067 474.025 536.58C474.034 536.939 474.065 537.297 474.117 537.652C461.029 538.391 451.563 540.545 451.563 543.085C451.563 546.3 466.138 548.808 484.12 548.808C502.101 548.808 516.676 546.246 516.676 543.085C516.676 541.895 514.612 540.781 511.02 539.87C511.966 539.275 512.855 538.586 513.672 537.812C514.445 537.159 515.007 536.277 515.283 535.283C515.41 534.785 515.368 534.257 515.163 533.788C514.958 533.319 514.602 532.939 514.158 532.711C513.125 532.304 512.021 533.043 511.185 533.783C510.349 534.522 509.389 535.401 508.284 535.24C508.851 534.711 509.276 534.037 509.515 533.285C509.754 532.533 509.799 531.729 509.647 530.953C509.599 530.635 509.471 530.335 509.275 530.085C508.697 529.453 507.655 529.721 506.973 530.225C504.785 531.821 504.176 534.908 504.166 537.726C504.052 536.705 504.052 535.673 504.166 534.651C504.203 534.137 504.122 533.622 503.928 533.149C503.734 532.675 503.433 532.257 503.051 531.929C502.53 531.642 501.947 531.502 501.358 531.521C500.871 531.447 500.374 531.481 499.901 531.622C499.427 531.762 498.988 532.006 498.612 532.336C498.249 532.848 498.062 533.471 498.081 534.107C498.1 534.742 498.323 535.352 498.715 535.84C499.529 536.789 500.493 537.586 501.564 538.198L501.719 538.305C498.416 537.941 494.721 537.662 490.757 537.523C490.757 537.201 490.819 536.869 490.829 536.537C491.17 516.668 492.13 468.57 493.379 462.858C494.968 455.634 493.379 411.652 493.379 411.652C493.379 411.652 493.214 406.765 493.441 400.57C495.625 400.895 497.833 401.007 500.037 400.903ZM470.453 429.892C471.432 429.09 472.369 428.235 473.261 427.331L474.293 434.286L470.453 429.892Z" fill="#8BCBC7"/>
<path opacity="0.2" d="M440.807 573.671C431.259 573.746 418.615 572.128 416.034 570.521C414.093 569.288 413.319 564.894 413.061 562.858H412.782C412.782 562.858 413.319 569.953 415.879 571.56C418.439 573.168 431.074 574.775 440.653 574.711C443.409 574.711 444.358 573.639 444.307 572.16C443.914 573.082 442.862 573.65 440.807 573.671Z" fill="black"/>
<path opacity="0.1" d="M264.275 409.21C252.808 408.799 241.983 404.545 234.118 397.358C226.253 390.171 221.973 380.622 222.193 370.755C222.413 360.889 227.117 351.489 235.298 344.567C243.478 337.645 254.485 333.751 265.962 333.719H266.69C273.235 330.805 280.526 329.352 287.894 329.492C295.262 329.632 302.471 331.361 308.859 334.521C317.643 330.103 327.937 328.445 337.984 329.83C348.032 331.214 357.208 335.555 363.946 342.111C370.684 348.667 374.565 357.031 374.927 365.775C375.288 374.518 372.107 383.098 365.928 390.049C370.538 396.77 372.613 404.554 371.87 412.331C371.126 420.108 367.599 427.496 361.774 433.48C355.949 439.463 348.112 443.749 339.339 445.748C330.567 447.747 321.289 447.361 312.782 444.643C304.131 453.982 294.254 465.518 296.17 469.671C298.624 474.846 297.167 527.276 296.477 548.305C296.466 548.673 296.427 549.04 296.362 549.404C312.565 550.162 324.283 552.37 324.283 554.974C324.283 558.27 306.24 560.841 283.98 560.841C261.72 560.841 243.676 558.215 243.676 554.974C243.676 553.754 246.232 552.612 250.679 551.678C249.507 551.068 248.408 550.362 247.395 549.568C246.438 548.899 245.743 547.994 245.402 546.976C245.244 546.465 245.296 545.924 245.55 545.443C245.804 544.963 246.244 544.572 246.794 544.339C248.072 543.921 249.44 544.679 250.475 545.437C251.51 546.195 252.698 547.096 254.065 546.932C253.363 546.389 252.838 545.698 252.542 544.927C252.246 544.156 252.19 543.332 252.379 542.537C252.438 542.21 252.596 541.903 252.839 541.647C253.554 540.999 254.845 541.273 255.688 541.79C258.397 543.427 259.151 546.591 259.164 549.481C259.305 548.433 259.305 547.375 259.164 546.327C259.117 545.801 259.218 545.273 259.459 544.787C259.699 544.302 260.071 543.873 260.544 543.537C261.188 543.243 261.911 543.099 262.64 543.119C263.243 543.043 263.858 543.078 264.444 543.222C265.03 543.366 265.574 543.615 266.039 543.954C266.488 544.479 266.72 545.118 266.697 545.77C266.673 546.421 266.397 547.047 265.911 547.547C264.904 548.519 263.711 549.337 262.384 549.964L262.192 550.074C266.282 549.7 270.856 549.415 275.763 549.272C275.763 548.942 275.686 548.602 275.674 548.261C275.252 527.891 274.064 478.582 272.517 472.726C270.55 465.321 272.517 420.23 272.517 420.23C272.517 420.23 272.722 415.22 272.441 408.87C269.737 409.203 267.004 409.317 264.275 409.21ZM300.898 438.93C299.687 438.108 298.527 437.231 297.423 436.304L296.145 443.435L300.898 438.93Z" fill="#8BCBC7"/>
<path opacity="0.1" d="M194.941 785C284.439 785 356.991 775.672 356.991 764.166C356.991 752.66 284.439 743.332 194.941 743.332C105.444 743.332 32.8916 752.66 32.8916 764.166C32.8916 775.672 105.444 785 194.941 785Z" fill="#8BCBC7"/>
<path d="M138.974 709.392C138.073 709.304 137.203 709.006 136.429 708.52C135.655 708.033 134.997 707.371 134.504 706.584C130.034 699.564 118.174 679.534 126.504 676.769C127.826 676.324 129.175 675.966 130.54 675.697C137.963 674.337 145.604 675.124 152.625 677.973C159.645 680.822 165.775 685.622 170.343 691.848C171.56 693.477 172.651 695.205 173.605 697.013C173.966 697.716 174.171 698.492 174.207 699.287C174.242 700.082 174.107 700.875 173.81 701.609C173.514 702.343 173.064 702.999 172.492 703.529C171.921 704.06 171.243 704.452 170.508 704.676C163.159 706.927 149.544 710.367 138.974 709.392Z" fill="#8BCBC7"/>
<path d="M130.747 708.288L176.185 699.757H244.23L234.506 715.318H140.006L130.747 708.288Z" fill="#33323D"/>
<path d="M165.275 207.739C170.374 205.049 177.021 207.739 183.091 208.371C190.957 209.165 198.75 206.228 206.667 206.453C213.873 206.678 220.752 209.628 226.011 214.748C230.397 219.19 232.951 225.226 233.133 231.585C233.329 235.366 232.465 239.126 230.646 242.409C226.868 248.935 218.259 253.361 209.33 254.101C200.537 254.758 191.782 252.372 184.433 247.317C178.57 243.18 174.482 237.672 169.517 232.892C165.987 229.452 156.697 225.111 156.625 220.642C156.573 217.545 162.054 209.411 165.275 207.739Z" fill="#4C4981"/>
<path opacity="0.1" d="M165.275 207.739C170.374 205.049 177.021 207.739 183.091 208.371C190.957 209.165 198.75 206.228 206.667 206.453C213.873 206.678 220.752 209.628 226.011 214.748C230.397 219.19 232.951 225.226 233.133 231.585C233.329 235.366 232.465 239.126 230.646 242.409C226.868 248.935 218.259 253.361 209.33 254.101C200.537 254.758 191.782 252.372 184.433 247.317C178.57 243.18 174.482 237.672 169.517 232.892C165.987 229.452 156.697 225.111 156.625 220.642C156.573 217.545 162.054 209.411 165.275 207.739Z" fill="#BA5AA5"/>
<path d="M184.185 667.777L183.483 682.781C190.309 682.27 197.155 682.135 203.994 682.374C204.551 680.123 203.994 677.755 203.54 675.461C202.705 671.045 202.424 666.535 202.703 662.044C202.786 660.811 190.007 659.547 188.717 659.482C187.148 659.418 185.517 659.193 184.763 660.897C183.927 662.762 184.278 665.741 184.185 667.777Z" fill="#4C4981"/>
<path d="M167.35 672.611L166.658 687.615C173.48 687.104 180.322 686.968 187.158 687.207C187.715 684.957 187.158 682.588 186.704 680.295C185.878 675.877 185.6 671.368 185.878 666.877C185.95 665.634 173.182 664.38 171.891 664.316C170.312 664.252 168.691 664.026 167.938 665.73C167.091 667.595 167.442 670.575 167.35 672.611Z" fill="#4C4981"/>
<path d="M199.204 667.263C198.229 667.637 197.336 668.213 196.582 668.956L191.421 673.436C189.687 674.947 187.406 676.544 185.331 675.579C184.459 675.016 183.649 674.354 182.916 673.607C182.542 673.242 182.065 673.012 181.555 672.952C181.045 672.893 180.53 673.006 180.087 673.275C179.624 673.78 179.344 674.435 179.292 675.129C177.608 684.643 176.858 694.309 177.053 703.979C178.659 704.637 180.356 705.028 182.08 705.137C182.272 705.167 182.468 705.129 182.637 705.03C182.936 704.772 182.771 704.28 182.73 703.883C182.585 702.5 184.443 701.686 185.651 702.286C186.778 703.039 187.617 704.176 188.025 705.501C188.199 706.035 188.505 706.512 188.913 706.884C189.284 707.13 189.704 707.287 190.141 707.345C192.487 707.768 194.862 707.994 197.243 708.02C208.253 708.413 219.264 708.413 230.274 708.02C231.421 708.04 232.563 707.874 233.66 707.527C234.694 707.091 235.6 706.383 236.292 705.474C236.983 704.565 237.435 703.485 237.603 702.34C237.899 700.023 237.339 697.675 236.034 695.77C235.096 694.347 233.857 693.167 232.411 692.319C231.316 691.716 230.173 691.214 228.994 690.819L223.833 688.89C220.065 687.497 216.164 686.007 213.356 683.06C211.8 681.274 210.474 679.285 209.413 677.144C207.462 673.704 204.417 665.677 199.204 667.263Z" fill="#4C4981"/>
<path opacity="0.1" d="M199.204 667.263C198.229 667.637 197.336 668.213 196.582 668.956L191.421 673.436C189.687 674.947 187.406 676.544 185.331 675.579C184.459 675.016 183.649 674.354 182.916 673.607C182.542 673.242 182.065 673.012 181.555 672.952C181.045 672.893 180.53 673.006 180.087 673.275C179.624 673.78 179.344 674.435 179.292 675.129C177.608 684.643 176.858 694.309 177.053 703.979C178.659 704.637 180.356 705.028 182.08 705.137C182.272 705.167 182.468 705.129 182.637 705.03C182.936 704.772 182.771 704.28 182.73 703.883C182.585 702.5 184.443 701.686 185.651 702.286C186.778 703.039 187.617 704.176 188.025 705.501C188.199 706.035 188.505 706.512 188.913 706.884C189.284 707.13 189.704 707.287 190.141 707.345C192.487 707.768 194.862 707.994 197.243 708.02C208.253 708.413 219.264 708.413 230.274 708.02C231.421 708.04 232.563 707.874 233.66 707.527C234.694 707.091 235.6 706.383 236.292 705.474C236.983 704.565 237.435 703.485 237.603 702.34C237.899 700.023 237.339 697.675 236.034 695.77C235.096 694.347 233.857 693.167 232.411 692.319C231.316 691.716 230.173 691.214 228.994 690.819L223.833 688.89C220.065 687.497 216.164 686.007 213.356 683.06C211.8 681.274 210.474 679.285 209.413 677.144C207.462 673.704 204.417 665.677 199.204 667.263Z" fill="#BA5AA5"/>
<path d="M248.514 424.909C248.514 427.967 248.452 431.028 248.328 434.093C247.807 452.851 246.186 471.558 243.476 490.111C242.857 494.28 242.186 498.438 241.205 502.521C239.791 508.362 237.706 514.053 237.077 520.054C236.22 528.628 238.429 537.469 236.56 545.871C235.6 550.158 233.598 554.156 232.432 558.4C231.743 560.933 231.198 563.506 230.801 566.105C229.761 572.107 228.729 578.097 227.704 584.078C227.59 584.688 227.487 585.299 227.384 585.91C226.089 592.968 223.807 599.792 220.612 606.165C218.83 610.144 217.447 614.303 216.484 618.576C214.646 625.67 212.809 632.772 210.971 639.881C208.484 649.473 205.986 659.493 207.875 669.235C204.104 668.992 200.36 668.411 196.685 667.499C191.992 666.321 187.445 664.587 183.132 662.333C182.162 645.797 182.874 629.218 183.576 612.66C184.03 602.168 184.484 591.654 186.188 581.302C188.035 570.017 190.564 559.246 192.773 548.026C196.087 531.232 199.421 514.299 199.101 497.163C198.709 474.968 199.266 452.366 208.587 432.4C209.497 430.025 210.983 427.935 212.902 426.334C214.787 425.151 216.903 424.419 219.095 424.191C226.516 422.884 234.042 422.325 241.567 422.519C244.031 422.736 246.412 423.555 248.514 424.909Z" fill="#33323D"/>
<path opacity="0.1" d="M248.514 424.909C248.514 427.963 226.176 425.627 226.073 428.681C198.636 425.38 211.488 432.003 210.28 432.893C207.679 434.79 220.169 430.974 217.568 432.893C215.307 434.554 211.797 441.006 209.465 442.538C204.025 446.236 222.161 457.617 218.125 462.9C214.461 467.68 213.604 474.196 214.089 480.262C214.574 486.328 216.277 492.233 217.186 498.267C218.874 509.701 217.697 521.393 213.769 532.218C211.415 538.702 208.112 544.746 205.109 550.93C201.826 557.735 195.756 564.498 196.479 572.085C198.141 589.168 195.271 606.38 194.497 623.527C194.198 630.086 194.208 636.773 195.963 643.085C196.624 645.497 197.542 647.833 198.027 650.287C199.256 655.978 198.286 661.872 196.665 667.52C191.972 666.342 187.424 664.609 183.112 662.355C182.141 645.818 182.854 629.239 183.556 612.681C184.01 602.189 184.464 591.676 186.167 581.323C188.015 570.038 190.544 559.268 192.753 548.047C196.066 531.254 199.4 514.321 199.08 497.184C198.688 474.989 199.245 452.387 208.566 432.421C209.476 430.046 210.963 427.957 212.881 426.355C214.767 425.173 216.882 424.44 219.075 424.212C226.496 422.906 234.021 422.346 241.546 422.54C244.016 422.748 246.404 423.56 248.514 424.909Z" fill="black"/>
<path d="M250.155 409.658C250.155 415.103 253.087 427.149 249.071 430.642C246.398 432.989 243.095 434.415 240.225 436.504C237.624 438.401 235.404 440.791 232.814 442.753C230.553 444.414 228.034 445.657 225.712 447.232C220.262 450.93 217.877 457.649 213.831 462.922C210.177 467.702 209.32 474.218 209.805 480.283C210.29 486.349 211.994 492.254 212.902 498.288C214.583 509.722 213.406 521.413 209.485 532.239C207.121 538.723 203.829 544.768 200.825 550.951C197.542 557.757 191.463 564.519 192.195 572.107C193.857 589.19 190.977 606.401 190.214 623.548C189.914 630.107 189.925 636.795 191.679 643.107C192.34 645.518 193.248 647.855 193.744 650.309C195.179 657.028 193.568 664.048 191.452 670.575C184.165 669.246 176.795 667.927 169.425 668.495C162.952 668.999 156.522 670.939 150.081 670.135C149.306 652.088 150.896 634.019 152.465 616.025C152.775 612.349 153.105 608.673 153.425 604.986C154.664 590.894 155.892 576.79 156.625 562.644C156.811 559.075 155.593 555.292 156.563 551.852C158.579 544.643 160.596 537.466 162.612 530.321C163.694 526.746 164.502 523.087 165.027 519.379C165.936 511.716 164.429 503.989 162.963 496.434C160.898 486.089 158.834 475.729 156.769 465.355C156.088 461.915 155.397 458.464 154.457 455.066C153.759 452.821 153.177 450.539 152.713 448.229C152.345 444.978 152.152 441.707 152.135 438.434C151.825 432.786 150.555 427.256 150.153 421.619C149.926 418.91 150.009 416.183 150.401 413.495C150.798 410.58 151.794 407.788 153.322 405.307C168.503 399.022 184.26 394.354 200.35 391.375C204.09 390.578 207.889 390.119 211.705 390.003C216.052 390.114 220.383 390.613 224.649 391.493C230.615 392.565 236.695 393.636 242.197 396.423C244.832 397.71 247.24 399.449 249.319 401.567C252.085 404.45 250.351 397.795 251.239 401.76C251.487 403.132 250.134 408.287 250.155 409.658Z" fill="#33323D"/>
<path d="M182.379 672.086C181.404 672.465 180.512 673.044 179.757 673.79L174.596 678.269C172.851 679.78 170.57 681.377 168.506 680.413C167.632 679.852 166.822 679.19 166.09 678.441C165.718 678.074 165.24 677.843 164.73 677.783C164.219 677.723 163.704 677.837 163.262 678.109C162.799 678.613 162.518 679.268 162.467 679.963C160.772 689.474 160.022 699.142 160.227 708.813C161.831 709.469 163.524 709.86 165.244 709.97C165.436 710.001 165.633 709.963 165.801 709.863C166.111 709.606 165.946 709.113 165.904 708.716C165.76 707.334 167.618 706.509 168.815 707.119C169.942 707.872 170.782 709.009 171.189 710.335C171.369 710.866 171.674 711.341 172.077 711.717C172.449 711.963 172.868 712.12 173.306 712.178C175.655 712.602 178.033 712.827 180.418 712.853C191.421 713.25 202.456 713.26 213.449 712.853C214.599 712.873 215.744 712.706 216.845 712.36C217.878 711.922 218.784 711.212 219.473 710.301C220.163 709.39 220.612 708.308 220.778 707.162C221.078 704.848 220.517 702.503 219.209 700.604C218.272 699.184 217.037 698.003 215.596 697.153C214.497 696.552 213.351 696.05 212.169 695.652L207.008 693.723C203.25 692.319 199.349 690.84 196.531 687.882C194.971 686.097 193.642 684.108 192.577 681.967C190.626 678.537 187.581 670.51 182.379 672.086Z" fill="#141644"/>
<path d="M233.092 235.775C232.739 237.462 231.999 239.036 230.935 240.362C228.705 243.577 226.238 246.974 222.625 248.249C220.614 248.842 218.513 249.039 216.432 248.828C198.448 247.891 181.27 240.79 167.587 228.637C174.059 224.201 177.507 216.12 178.353 208.125C178.839 201.911 178.492 195.657 177.321 189.542C177.021 187.731 176.712 185.93 176.402 184.183C175.824 180.904 174.338 178.364 177.94 177.453C180.738 176.735 184.536 177.239 187.395 177.453C193.682 177.817 200.102 179.232 205.212 183.229C206.611 184.257 207.783 185.583 208.649 187.12C210.848 191.407 209.062 196.454 208.546 201.373C208.429 202.487 208.405 203.61 208.474 204.728C208.876 210.183 212.406 214.887 216.463 218.371C220.52 221.854 225.206 224.533 229.159 228.123C231.368 230.052 233.484 232.763 233.092 235.775Z" fill="#FBBEBE"/>
<path opacity="0.1" d="M208.536 201.309C206.292 201.853 203.996 202.126 201.692 202.123C196.966 202.126 192.303 200.989 188.072 198.802C183.841 196.615 180.157 193.437 177.311 189.52C177.011 187.709 176.702 185.909 176.392 184.162C175.814 180.882 174.328 178.342 177.93 177.431C180.727 176.713 184.526 177.217 187.385 177.431C193.671 177.796 200.092 179.211 205.201 183.208C206.601 184.236 207.773 185.562 208.639 187.098C210.837 191.331 209.052 196.379 208.536 201.309Z" fill="black"/>
<path d="M201.702 200.634C218.594 200.634 232.287 186.417 232.287 168.879C232.287 151.342 218.594 137.125 201.702 137.125C184.811 137.125 171.117 151.342 171.117 168.879C171.117 186.417 184.811 200.634 201.702 200.634Z" fill="#FBBEBE"/>
<path opacity="0.1" d="M252.023 404.482C251.837 404.911 250.382 412.209 250.155 412.627C239.977 410.484 233.639 410.323 223.317 410.484C220.698 410.456 218.082 410.682 215.503 411.159C213.335 411.609 211.219 412.348 209.031 412.702C197.243 414.588 186.084 405.018 174.183 405.961C170.209 406.272 166.41 407.751 162.684 409.176C158.555 410.805 154.426 412.048 150.4 413.463C150.797 410.548 151.794 407.755 153.322 405.275C168.503 398.99 184.26 394.322 200.35 391.343C204.089 390.546 207.888 390.087 211.704 389.971C216.052 390.082 220.383 390.581 224.648 391.461C230.615 392.533 236.695 393.604 242.196 396.391C244.832 397.678 247.24 399.417 249.319 401.535C252.023 404.482 251.187 400.517 252.023 404.482Z" fill="black"/>
<path d="M191.493 233.717C190.853 230.502 188.737 227.941 186.652 225.519C182.716 220.946 178.649 216.491 174.451 212.155C173.095 210.596 171.488 209.295 169.703 208.307C168.804 207.822 167.804 207.573 166.791 207.582C165.778 207.592 164.782 207.859 163.892 208.361C162.302 209.432 161.497 211.319 160.227 212.755C157.481 215.873 152.702 216.613 150.39 220.096C149.879 221.072 149.289 222 148.625 222.872C147.632 223.75 146.443 224.358 145.167 224.64L130.592 229.173C128.878 229.698 126.979 230.384 126.164 232.035C125.812 232.913 125.593 233.842 125.513 234.789C124.357 241.637 118.546 246.395 113.436 250.864C111.661 252.418 109.865 254.133 109.111 256.405C108.358 258.677 108.75 261.088 109.214 263.403C110.381 269.287 112.084 275.192 115.408 280.132C117.596 283.476 120.466 286.348 122.272 289.928C123.8 293.344 124.763 297.004 125.121 300.752C126.153 307.793 126.69 314.888 127.268 321.982C127.774 328.22 127.051 335.229 128.796 341.273C130.922 348.614 138.509 352.794 141.874 359.621C143.133 362.49 144.005 365.527 144.465 368.644L147.696 385.641C148.282 388.217 148.604 390.851 148.656 393.497C148.573 399.745 145.487 405.832 146.457 411.995C151.918 409.851 157.182 408.383 162.632 406.25C166.369 404.782 170.168 403.292 174.152 402.982C186.043 402.06 197.202 411.619 208.99 409.733C211.178 409.39 213.294 408.662 215.462 408.201C218.041 407.722 220.656 407.489 223.276 407.504C233.668 407.341 244.047 408.314 254.243 410.408C256.307 406.818 256.648 402.414 256.142 398.266C255.636 394.119 254.346 390.132 253.334 386.081C250.665 375.453 249.889 364.408 251.043 353.49C251.434 350.746 251.672 347.98 251.755 345.206C251.755 334.854 245.706 325.155 246.263 314.813C246.811 304.642 258 298.952 262.624 289.949C263.688 288.154 264.222 286.076 264.162 283.969C263.935 281.826 262.635 279.897 261.798 277.882C259.734 272.941 260.498 267.251 259.321 262.021C258.898 260.188 258.289 258.42 257.855 256.577C256.823 251.497 257.762 246.095 256.513 241.058C255.543 237.157 253.293 233.739 250.898 230.577C246.852 225.219 242.124 220.214 236.22 217.256C230.315 214.298 223.049 213.666 217.278 216.902C216.381 217.367 215.587 218.02 214.946 218.821C214.342 219.776 213.909 220.836 213.666 221.95C211.609 229.099 208.765 235.978 205.191 242.452C203.854 242.662 202.489 242.562 201.193 242.16C199.898 241.758 198.704 241.063 197.697 240.126C195.612 238.283 192.04 236.461 191.493 233.717Z" fill="#BA5AA5"/>
<path d="M186.972 178.407C187.542 176.983 187.796 175.445 187.715 173.906C187.634 172.363 188.04 170.836 188.872 169.555C190.069 168.043 192.216 167.636 193.362 166.104C194.673 164.357 194.229 161.881 194.621 159.673C194.969 157.922 195.867 156.34 197.175 155.176C198.483 154.012 200.126 153.332 201.847 153.243C204.407 153.168 206.812 154.433 209.33 154.947C212.602 155.622 215.978 155.012 219.26 154.411C221.707 153.961 224.422 153.393 225.949 151.4C226.878 150.052 227.487 148.495 227.725 146.856C228.272 144.295 228.685 141.444 227.415 139.183C226.145 136.921 223.462 135.817 222.047 133.62C220.819 131.702 220.716 129.173 219.467 127.265C217.526 124.286 213.48 123.761 210.043 124.211C206.605 124.661 203.116 125.797 199.72 125.036C195.984 124.2 192.288 121.146 188.768 122.678C186.177 123.814 185.094 126.912 183.504 129.323C182.129 131.403 180.254 133.073 178.064 134.167C174.699 135.85 170.756 136.085 167.525 138.036C166.066 138.936 164.81 140.153 163.845 141.603C162.879 143.053 162.226 144.702 161.93 146.438C161.78 147.071 161.801 147.735 161.992 148.356C162.225 148.831 162.498 149.283 162.808 149.707C164.15 151.914 163.283 154.862 161.982 157.091C160.681 159.32 158.947 161.377 158.534 164.003C158.122 166.629 159.102 169.19 160.372 171.451C161.799 173.606 163.072 175.866 164.181 178.214C165.285 181.011 165.492 184.108 166.596 186.895C167.479 189.048 168.866 190.938 170.631 192.394C172.395 193.85 174.482 194.826 176.702 195.232C177.116 195.349 177.549 195.375 177.974 195.309C178.399 195.243 178.806 195.085 179.169 194.847C179.655 194.357 179.977 193.719 180.087 193.025C180.386 191.841 180.583 190.633 180.676 189.413C180.851 187.013 180.676 184.237 181.708 182.018C182.988 179.243 185.589 181.118 186.972 178.407Z" fill="#33323D"/>
<path opacity="0.1" d="M227.363 139.268C226.083 136.996 223.41 135.903 221.996 133.706C220.767 131.788 220.664 129.259 219.415 127.351C218.483 125.996 217.113 125.034 215.555 124.64C216.804 126.547 216.897 129.076 218.135 130.995C219.539 133.192 222.212 134.274 223.492 136.557C224.772 138.84 224.349 141.669 223.802 144.23C223.566 145.868 222.961 147.425 222.037 148.774C220.447 150.757 217.784 151.336 215.338 151.786C212.055 152.386 208.68 152.986 205.408 152.322C202.9 151.796 200.494 150.543 197.924 150.618C196.221 150.714 194.595 151.391 193.3 152.544C192.005 153.697 191.112 155.261 190.761 156.994C190.368 159.138 190.761 161.645 189.501 163.424C188.345 164.957 186.198 165.364 185.011 166.865C184.178 168.149 183.769 169.68 183.845 171.226C183.929 172.761 183.678 174.296 183.112 175.717C181.718 178.439 179.117 176.553 177.806 179.328C176.774 181.547 176.949 184.323 176.774 186.723C176.681 187.946 176.484 189.158 176.185 190.345C176.075 191.037 175.757 191.674 175.277 192.167C174.914 192.406 174.507 192.563 174.083 192.63C173.658 192.696 173.225 192.67 172.81 192.553C171.742 192.359 170.702 192.028 169.713 191.567C171.633 193.483 174.059 194.763 176.681 195.243C177.095 195.36 177.529 195.386 177.954 195.32C178.378 195.253 178.785 195.096 179.148 194.857C179.634 194.368 179.956 193.729 180.067 193.035C180.365 191.852 180.562 190.643 180.655 189.424C180.831 187.023 180.655 184.247 181.687 182.029C183.009 179.253 185.61 181.129 186.993 178.417C187.562 176.994 187.816 175.456 187.736 173.916C187.655 172.374 188.061 170.846 188.892 169.565C190.09 168.054 192.237 167.647 193.382 166.114C194.693 164.367 194.249 161.892 194.642 159.684C194.998 157.943 195.901 156.373 197.209 155.221C198.516 154.069 200.154 153.4 201.867 153.318C204.427 153.232 206.832 154.497 209.351 155.012C212.623 155.687 215.998 155.076 219.281 154.476C221.727 154.026 224.442 153.458 225.97 151.464C226.899 150.116 227.507 148.559 227.745 146.92C228.22 144.38 228.633 141.53 227.363 139.268Z" fill="black"/>
<path d="M161.332 732.937C161.332 743.75 154.044 752.517 145.064 752.517C136.083 752.517 128.806 743.75 128.806 732.937V732.787C128.878 722.07 136.135 713.357 145.064 713.357C150.586 713.357 155.458 716.658 158.39 721.738C160.341 725.12 161.358 728.994 161.332 732.937Z" fill="#33323D"/>
<path d="M290.959 740.824C290.959 761.648 280.585 778.538 267.796 778.538C255.006 778.538 244.653 761.648 244.653 740.824C244.653 729.036 247.956 718.544 253.138 711.642C257.143 706.284 262.222 703.068 267.796 703.068C268.563 703.067 269.329 703.124 270.087 703.24C274.681 703.979 278.902 706.905 282.298 711.385C282.777 712 283.225 712.64 283.64 713.303C288.141 720.226 290.959 730 290.959 740.824Z" fill="#33323D"/>
<path d="M277.168 697.657L256.926 699.757L254.325 677.294L254.15 675.826L250.475 644.168L250.31 642.7L231.719 482.555L231.317 479.147L220.231 383.563L219.962 381.28L218.806 371.292L218.032 364.658H234.238L235.115 371.527L235.26 372.62L235.662 375.696L249.567 483.574L249.938 486.467L269.767 640.267L274.113 673.972L277.168 697.657Z" fill="#33323D"/>
<path opacity="0.1" d="M267.775 703.122C268.542 703.12 269.308 703.177 270.067 703.293L269.489 703.701C267.642 705.122 266.191 707.026 265.284 709.22C264.377 711.413 264.047 713.817 264.327 716.186L267.61 748.594C267.62 748.762 267.62 748.93 267.61 749.098C267.568 750.282 267.114 751.41 266.331 752.272C265.548 753.134 264.49 753.672 263.354 753.785C262.218 753.897 261.081 753.578 260.155 752.885C259.229 752.192 258.577 751.174 258.32 750.02C256.968 742.593 254.408 727.417 253.252 713.71C253.19 712.982 253.148 712.296 253.148 711.642C257.123 706.326 262.201 703.122 267.775 703.122Z" fill="black"/>
<path opacity="0.1" d="M273.617 713.357L272.905 713.143C272.688 712.553 272.492 711.974 272.275 711.438C272.754 712.054 273.202 712.694 273.617 713.357Z" fill="black"/>
<path d="M266.629 694.291C266.629 694.291 250.165 693.219 251.786 712.231C252.952 725.938 255.512 741.103 256.854 748.53C257.081 749.774 257.764 750.878 258.759 751.61C259.755 752.342 260.985 752.644 262.191 752.452C263.391 752.263 264.474 751.601 265.215 750.602C265.955 749.604 266.296 748.347 266.165 747.094L262.882 714.686C262.599 712.315 262.928 709.908 263.835 707.713C264.741 705.517 266.194 703.611 268.043 702.19C271.935 699.35 277.127 699.178 281.462 711.642L284.435 712.489C284.435 712.489 288.234 692.041 266.629 694.291Z" fill="#504F60"/>
<path opacity="0.1" d="M249.556 483.573C248.74 483.74 247.911 483.826 247.079 483.831H241.278C238.006 483.82 234.853 482.56 232.418 480.291C229.984 478.023 228.438 474.903 228.076 471.528L219.199 387.646C218.971 385.468 219.244 383.265 219.998 381.218C220.751 379.172 221.961 377.34 223.53 375.875C225.099 374.41 226.98 373.352 229.02 372.79C231.059 372.228 233.198 372.177 235.26 372.642L249.556 483.573Z" fill="black"/>
<path opacity="0.1" d="M249.928 486.467C248.993 486.691 248.037 486.802 247.079 486.799H241.278C239.487 486.797 237.716 486.415 236.073 485.678C234.43 484.941 232.948 483.864 231.719 482.513L231.317 479.094L220.23 383.519C221.477 380.513 223.717 378.068 226.546 376.624C229.375 375.18 232.608 374.832 235.662 375.642L249.556 483.531L249.928 486.467Z" fill="black"/>
<path d="M219.198 389.125C221.335 409.305 225.846 451.969 228.076 473.028C228.432 476.404 229.976 479.525 232.413 481.792C234.849 484.059 238.006 485.311 241.278 485.31H247.068C249.834 485.348 252.539 484.473 254.793 482.811C257.048 481.148 258.735 478.784 259.61 476.061C259.968 474.904 260.152 473.697 260.157 472.481C260.157 466.051 253.51 407.804 251.445 389.843C251.248 388.063 250.715 386.341 249.875 384.776C249.036 383.211 247.906 381.833 246.552 380.722C243.837 378.486 240.891 376.571 237.768 375.01C228.488 370.531 218.084 378.558 219.198 389.125Z" fill="#8BCBC7"/>
<path opacity="0.1" d="M158.39 721.738L154.034 721.545C150.158 721.363 146.314 722.341 142.958 724.363L129.333 732.508C129.157 732.605 128.971 732.712 128.806 732.787C128.878 722.07 136.135 713.357 145.064 713.357C150.576 713.357 155.458 716.658 158.39 721.738Z" fill="black"/>
<path opacity="0.1" d="M274.113 675.451L254.325 677.294L254.15 675.826L250.475 644.168L269.767 641.756L274.113 675.451Z" fill="black"/>
<path d="M254.129 675.826C257.308 724.052 224.783 723.163 224.783 723.163L154.044 720.012C150.166 719.839 146.321 720.817 142.958 722.831L129.333 730.986C128.101 731.723 126.685 732.059 125.268 731.95C123.851 731.841 122.498 731.292 121.384 730.375C119.937 729.182 118.995 727.45 118.758 725.547C118.521 723.644 119.007 721.72 120.115 720.183L125.875 712.21C127.067 710.562 128.633 709.245 130.434 708.377C132.235 707.51 134.215 707.118 136.197 707.237L210.218 711.621C240.153 712.178 250.31 642.657 250.31 642.657L269.778 640.224L274.113 673.929L254.16 675.783L254.129 675.826Z" fill="#504F60"/>
<path opacity="0.1" d="M235.115 371.527L218.806 371.292L218.032 364.658H234.238L235.115 371.527Z" fill="black"/>
<path d="M156.398 358.431L293.25 361.989C294.359 362.031 295.41 362.518 296.18 363.347C296.95 364.177 297.38 365.284 297.379 366.437C297.379 367.025 297.267 367.607 297.048 368.149C296.83 368.692 296.509 369.184 296.106 369.597C295.702 370.01 295.224 370.335 294.698 370.554C294.173 370.773 293.61 370.882 293.044 370.873L156.201 368.891C155.079 368.874 154.008 368.399 153.22 367.569C152.432 366.738 151.99 365.62 151.99 364.454V362.868C151.99 362.273 152.105 361.685 152.328 361.137C152.551 360.589 152.878 360.094 153.289 359.68C153.7 359.266 154.187 358.942 154.721 358.728C155.255 358.513 155.825 358.412 156.398 358.431Z" fill="#33323D"/>
<path d="M165.843 345.796C170.611 346.803 175.886 346.535 179.881 349.439C183.442 352.022 185.166 356.684 185.362 361.228C185.558 365.772 184.412 370.177 183.297 374.539C182.947 375.91 182.265 377.572 180.882 377.614C179.499 377.657 178.818 376.2 177.713 375.471C175.339 373.971 171.984 376.189 169.589 374.732C168.91 374.206 168.281 373.614 167.711 372.963C166.771 372.11 165.605 371.572 164.365 371.419C163.126 371.266 161.87 371.505 160.764 372.106C161.071 370.407 161.008 368.658 160.58 366.988C160.151 365.317 159.367 363.768 158.286 362.453C157.205 361.138 155.854 360.092 154.332 359.39C152.81 358.689 151.156 358.35 149.492 358.399C147.634 358.463 145.642 358.967 144.021 358.034C141.41 356.556 141.627 352.483 142.989 349.761C144.971 345.935 146.478 342.184 150.979 342.184C156.14 342.206 160.898 344.756 165.843 345.796Z" fill="#FBBEBE"/>
<path d="M259.053 351.122L258.991 361.539C258.991 365.461 258.991 369.577 260.859 372.995C261.829 374.774 263.502 376.382 265.483 376.339C266.227 376.339 266.949 376.082 267.692 376.114C269.85 376.2 271.821 378.558 273.834 377.775C274.515 377.507 275.063 376.907 275.764 376.703C276.797 376.382 277.984 376.982 279.026 376.65C280.069 376.318 280.688 375.074 281.091 373.981C283.155 368.751 285.22 362.986 283.723 357.563C282.892 355.121 281.705 352.826 280.203 350.758L273.514 340.48C273.248 339.991 272.873 339.576 272.42 339.269C271.953 339.042 271.437 338.946 270.923 338.99C267.599 338.99 264.492 340.619 261.52 342.205C258.547 343.792 259.073 348.132 259.053 351.122Z" fill="#FBBEBE"/>
<path d="M265.607 293.207C265.978 295.495 266.609 297.729 267.486 299.863C268.663 302.295 270.748 304.342 271.119 307.043C271.563 310.258 269.54 313.966 271.47 316.506C272.255 317.578 273.535 318.081 274.361 319.11C276.343 321.65 274.454 325.39 274.743 328.638C275.001 331.606 277.137 334.071 277.726 336.997C278.314 339.923 277.323 343.545 279.119 346.01C277.292 343.02 273.287 342.431 269.922 343.009C267.16 343.508 264.523 344.581 262.169 346.163C259.816 347.744 257.794 349.803 256.224 352.215C256.727 347.968 256.289 343.657 254.944 339.612C253.737 335.99 251.796 332.474 251.961 328.648C252.064 326.387 252.911 324.169 252.704 321.907C252.384 318.371 249.608 315.681 247.213 313.184C244.302 310.172 241.464 306.593 241.174 302.327C240.906 298.373 242.919 294.633 245.221 291.46C246.975 288.789 249.313 286.586 252.044 285.03C253.85 284.109 259.321 280.25 260.518 280.743C263.089 281.751 265.04 290.764 265.607 293.207Z" fill="#BA5AA5"/>
<path d="M114.448 260.949C111.66 261.916 109.322 263.931 107.893 266.597C106.493 269.248 105.342 272.033 104.456 274.913C102.282 281.037 99.588 286.948 96.4045 292.575C93.989 296.862 91.2433 300.977 89.9427 305.703C88.7763 309.84 88.6937 314.341 86.7738 318.156C85.8344 320.021 84.4925 321.672 83.7803 323.644C82.8513 326.194 83.0887 329.002 83.3467 331.746L84.0177 338.99C84.0969 341.371 84.6155 343.714 85.5454 345.892C86.8357 348.453 89.1891 350.179 91.46 351.904L101.958 359.631C103.963 361.253 106.176 362.577 108.533 363.564C115.366 366.062 122.737 362.621 129.921 361.678C134.876 361.035 139.892 361.582 144.857 362.139C144.444 357.927 144.579 353.469 146.54 349.761C148.501 346.053 154.478 341.187 158.431 342.195C154.509 338.755 148.016 340.673 143.67 337.811C141.926 336.665 140.439 335.143 138.726 333.932C133.327 330.138 125.586 329.495 122.107 323.761C121.883 323.447 121.741 323.078 121.694 322.69C121.632 321.843 122.324 321.168 122.922 320.546C127.278 316.26 129.456 310.076 129.993 303.892C130.53 297.708 129.58 291.514 128.496 285.405C127.619 280.508 126.638 275.546 124.491 271.087C122.344 266.629 118.948 262.61 114.448 260.949Z" fill="#BA5AA5"/>
<path d="M412.782 562.221C412.782 562.221 421.247 561.953 423.796 560.077C426.346 558.202 436.813 555.941 437.442 559.006C438.072 562.071 450.159 574.009 440.611 574.127C431.063 574.245 418.408 572.584 415.838 570.976C413.268 569.369 412.782 562.221 412.782 562.221Z" fill="#A8A8A8"/>
<path opacity="0.1" d="M537.858 660.202C557.417 660.202 573.273 657.419 573.273 653.986C573.273 650.553 557.417 647.77 537.858 647.77C518.298 647.77 502.442 650.553 502.442 653.986C502.442 657.419 518.298 660.202 537.858 660.202Z" fill="#8BCBC7"/>
<path d="M499.533 632.3C499.533 632.3 519.733 631.657 525.824 627.156C531.914 622.655 556.904 617.275 558.411 624.498C559.918 631.722 588.769 660.4 565.957 660.593C543.144 660.786 512.962 656.896 506.893 653.091C500.823 649.287 499.533 632.3 499.533 632.3Z" fill="#A8A8A8"/>
<path opacity="0.2" d="M566.369 658.535C543.557 658.728 513.375 654.848 507.295 651.033C502.671 648.107 500.823 637.605 500.214 632.76H499.533C499.533 632.76 500.813 649.672 506.893 653.519C512.972 657.367 543.155 661.236 565.957 661.021C572.542 660.957 574.823 658.524 574.689 654.923C573.781 657.131 571.273 658.492 566.369 658.535Z" fill="black"/>
<g opacity="0.1">
<path opacity="0.1" d="M399.89 273.992C402.161 281.322 395.967 306.839 395.967 306.839C395.967 306.839 376.603 289.864 374.291 282.533C373.196 279.014 373.492 275.188 375.114 271.896C376.736 268.604 379.552 266.116 382.941 264.979C386.33 263.842 390.015 264.149 393.186 265.833C396.357 267.518 398.754 270.441 399.849 273.96L399.89 273.992Z" fill="#8BCBC7"/>
<path opacity="0.1" d="M399.26 181.011C395.482 187.634 372.99 199.766 372.99 199.766C372.99 199.766 372.371 173.455 376.087 166.832C377.898 163.649 380.853 161.343 384.301 160.421C387.75 159.5 391.41 160.038 394.476 161.919C397.542 163.799 399.763 166.867 400.651 170.447C401.538 174.028 401.02 177.828 399.209 181.011H399.26Z" fill="#8BCBC7"/>
<path opacity="0.1" d="M394.553 512.027C392.241 516.11 378.389 523.569 378.389 523.569C378.389 523.569 378.007 507.376 380.329 503.303C381.443 501.345 383.261 499.926 385.383 499.36C387.505 498.793 389.756 499.124 391.642 500.281C393.529 501.438 394.895 503.325 395.441 505.528C395.987 507.731 395.667 510.069 394.553 512.027Z" fill="#8BCBC7"/>
<path opacity="0.1" d="M545.321 471.442C542.998 475.514 529.156 482.984 529.156 482.984C529.156 482.984 528.774 466.791 531.097 462.707C532.212 460.749 534.031 459.331 536.154 458.765C538.277 458.2 540.529 458.532 542.415 459.691C544.301 460.849 545.667 462.738 546.212 464.941C546.757 467.145 546.436 469.484 545.321 471.442Z" fill="#8BCBC7"/>
<path opacity="0.1" d="M383.292 406.4C379.524 413.034 357.032 425.155 357.032 425.155C357.032 425.155 356.402 398.855 360.129 392.222C361.025 390.646 362.212 389.269 363.621 388.17C365.03 387.071 366.634 386.27 368.341 385.814C370.048 385.359 371.825 385.256 373.571 385.514C375.316 385.771 376.995 386.382 378.513 387.313C380.03 388.244 381.356 389.476 382.415 390.939C383.474 392.403 384.245 394.068 384.684 395.84C385.123 397.613 385.221 399.457 384.973 401.269C384.726 403.081 384.137 404.825 383.24 406.4H383.292Z" fill="#8BCBC7"/>
</g>
</g>
<defs>
<clipPath id="clip0">
<rect width="1154" height="788" fill="white" transform="translate(-413 -3)"/>
</clipPath>
</defs>
</svg>
