<svg width="1154" height="788" viewBox="0 0 1154 788" fill="none" xmlns="http://www.w3.org/2000/svg">
<g clip-path="url(#clip0)">
<rect width="1154" height="788" fill="#FCDF6C"/>
<path opacity="0.1" d="M1060.98 212.112C1113.54 210.033 1155.18 163.971 1153.97 109.378C1153.37 83.1555 1142.92 58.2147 1124.85 39.8867C1106.77 21.5586 1082.51 11.2975 1057.25 11.2964H1055.64C1041.21 3.51998 1025.12 -0.359701 1008.86 0.0148786C992.606 0.389458 976.701 5.00625 962.615 13.4398C947.172 4.16149 929.55 -0.4801 911.715 0.032834C859.929 1.40461 818.041 45.6123 817.514 99.4009C817.247 121.674 824.149 143.403 837.127 161.142C828.42 176.422 823.788 193.833 823.708 211.587C823.408 265.707 865.11 310.794 917.207 312.562C929.808 313.013 942.373 310.898 954.192 306.336C973.226 331.178 994.996 361.935 990.681 372.92C985.282 386.659 988.492 526.109 990.02 582.063C990.05 583.028 990.133 583.99 990.268 584.945C954.594 586.971 928.778 592.844 928.778 599.778C928.778 608.351 968.519 615.36 1017.55 615.36C1066.58 615.36 1106.32 608.384 1106.32 599.778C1106.32 596.563 1100.61 593.498 1090.84 590.99C1093.43 589.382 1095.85 587.5 1098.06 585.374C1100.04 583.477 1101.89 581.227 1102.46 578.494C1103.03 575.761 1101.9 572.482 1099.36 571.485C1096.55 570.36 1093.53 572.396 1091.25 574.443C1088.97 576.49 1086.35 578.826 1083.35 578.397C1084.89 576.949 1086.04 575.112 1086.69 573.065C1087.35 571.018 1087.47 568.83 1087.07 566.716C1086.94 565.844 1086.58 565.026 1086.04 564.347C1084.47 562.611 1081.63 563.351 1079.76 564.722C1073.8 569.074 1072.13 577.486 1072.1 585.085C1071.5 582.352 1072.01 579.512 1071.99 576.715C1071.97 573.918 1071.24 570.81 1068.96 569.299C1067.54 568.529 1065.95 568.159 1064.34 568.227C1061.67 568.13 1058.68 568.409 1056.85 570.445C1054.58 572.964 1055.16 577.208 1057.15 579.994C1059.13 582.781 1062.13 584.517 1064.9 586.424L1065.32 586.714C1056.33 585.706 1046.25 584.967 1035.39 584.57C1035.5 583.679 1035.57 582.78 1035.58 581.88C1036.53 527.685 1039.13 396.551 1042.55 380.969C1046.86 361.271 1042.55 241.337 1042.55 241.337C1042.55 241.337 1042.1 228.016 1042.72 211.136C1048.76 212.047 1054.87 212.374 1060.98 212.112ZM980.307 291.117C982.978 288.936 985.535 286.607 987.966 284.141L990.732 303.12L980.307 291.117Z" fill="#8BCBC7"/>
<path opacity="0.1" d="M913.037 403.903C922.3 403.502 931.044 399.352 937.397 392.341C943.751 385.331 947.208 376.017 947.03 366.393C946.852 356.769 943.053 347.599 936.445 340.847C929.837 334.095 920.945 330.297 911.674 330.266H911.086C905.799 327.424 899.91 326.006 893.958 326.143C888.006 326.279 882.183 327.966 877.022 331.048C869.927 326.739 861.611 325.122 853.495 326.472C845.379 327.823 837.967 332.057 832.524 338.452C827.081 344.847 823.946 353.006 823.654 361.534C823.362 370.063 825.931 378.432 830.923 385.212C827.199 391.768 825.523 399.361 826.123 406.947C826.724 414.533 829.573 421.739 834.278 427.576C838.984 433.412 845.315 437.593 852.401 439.543C859.487 441.493 866.981 441.116 873.853 438.465C880.842 447.574 888.821 458.827 887.272 462.878C885.29 467.926 886.467 519.067 887.025 539.58C887.034 539.939 887.065 540.297 887.117 540.652C874.029 541.391 864.563 543.545 864.563 546.085C864.563 549.3 879.138 551.808 897.12 551.808C915.101 551.808 929.676 549.246 929.676 546.085C929.676 544.895 927.612 543.781 924.02 542.87C924.966 542.275 925.855 541.586 926.672 540.812C927.445 540.159 928.007 539.277 928.283 538.283C928.41 537.785 928.368 537.257 928.163 536.788C927.958 536.319 927.602 535.939 927.158 535.711C926.125 535.304 925.021 536.043 924.185 536.783C923.349 537.522 922.389 538.401 921.284 538.24C921.851 537.711 922.276 537.037 922.515 536.285C922.754 535.533 922.799 534.729 922.647 533.953C922.599 533.635 922.471 533.335 922.275 533.085C921.697 532.453 920.655 532.721 919.973 533.225C917.785 534.821 917.176 537.908 917.166 540.726C917.052 539.705 917.052 538.673 917.166 537.651C917.203 537.137 917.122 536.622 916.928 536.149C916.734 535.675 916.433 535.257 916.051 534.929C915.53 534.642 914.947 534.502 914.358 534.521C913.871 534.447 913.374 534.481 912.901 534.622C912.427 534.762 911.988 535.006 911.612 535.336C911.249 535.848 911.062 536.471 911.081 537.107C911.1 537.742 911.323 538.352 911.715 538.84C912.529 539.789 913.493 540.586 914.564 541.198L914.719 541.305C911.416 540.941 907.721 540.662 903.757 540.523C903.757 540.201 903.819 539.869 903.829 539.537C904.17 519.668 905.13 471.57 906.379 465.858C907.968 458.634 906.379 414.652 906.379 414.652C906.379 414.652 906.214 409.765 906.441 403.57C908.625 403.895 910.833 404.007 913.037 403.903ZM883.453 432.892C884.432 432.09 885.369 431.235 886.261 430.331L887.293 437.286L883.453 432.892Z" fill="#8BCBC7"/>
<path opacity="0.2" d="M853.807 576.671C844.259 576.746 831.615 575.128 829.034 573.521C827.093 572.288 826.319 567.894 826.061 565.858H825.782C825.782 565.858 826.319 572.953 828.879 574.56C831.439 576.168 844.074 577.775 853.653 577.711C856.409 577.711 857.358 576.639 857.307 575.16C856.914 576.082 855.862 576.65 853.807 576.671Z" fill="black"/>
<path opacity="0.1" d="M677.275 412.21C665.808 411.799 654.983 407.545 647.118 400.358C639.253 393.171 634.973 383.622 635.193 373.755C635.413 363.889 640.117 354.489 648.298 347.567C656.478 340.645 667.485 336.751 678.962 336.719H679.69C686.235 333.805 693.526 332.352 700.894 332.492C708.262 332.632 715.471 334.361 721.859 337.521C730.643 333.103 740.937 331.445 750.984 332.83C761.032 334.214 770.208 338.555 776.946 345.111C783.684 351.667 787.565 360.031 787.927 368.775C788.288 377.518 785.107 386.098 778.928 393.049C783.538 399.77 785.613 407.554 784.87 415.331C784.126 423.108 780.599 430.496 774.774 436.48C768.949 442.463 761.112 446.749 752.339 448.748C743.567 450.747 734.289 450.361 725.782 447.643C717.131 456.982 707.254 468.518 709.17 472.671C711.624 477.846 710.167 530.276 709.477 551.305C709.466 551.673 709.427 552.04 709.362 552.404C725.565 553.162 737.283 555.37 737.283 557.974C737.283 561.27 719.24 563.841 696.98 563.841C674.72 563.841 656.676 561.215 656.676 557.974C656.676 556.754 659.232 555.612 663.679 554.678C662.507 554.068 661.408 553.362 660.395 552.568C659.438 551.899 658.743 550.994 658.402 549.976C658.244 549.465 658.296 548.924 658.55 548.443C658.804 547.963 659.244 547.572 659.794 547.339C661.072 546.921 662.44 547.679 663.475 548.437C664.51 549.195 665.698 550.096 667.065 549.932C666.363 549.389 665.838 548.698 665.542 547.927C665.246 547.156 665.19 546.332 665.379 545.537C665.438 545.21 665.596 544.903 665.839 544.647C666.554 543.999 667.845 544.273 668.688 544.79C671.397 546.427 672.151 549.591 672.164 552.481C672.305 551.433 672.305 550.375 672.164 549.327C672.117 548.801 672.218 548.273 672.459 547.787C672.699 547.302 673.071 546.873 673.544 546.537C674.188 546.243 674.911 546.099 675.64 546.119C676.243 546.043 676.858 546.078 677.444 546.222C678.03 546.366 678.574 546.615 679.039 546.954C679.488 547.479 679.72 548.118 679.697 548.77C679.673 549.421 679.397 550.047 678.911 550.547C677.904 551.519 676.711 552.337 675.384 552.964L675.192 553.074C679.282 552.7 683.856 552.415 688.763 552.272C688.763 551.942 688.686 551.602 688.674 551.261C688.252 530.891 687.064 481.582 685.517 475.726C683.55 468.321 685.517 423.23 685.517 423.23C685.517 423.23 685.722 418.22 685.441 411.87C682.737 412.203 680.004 412.317 677.275 412.21ZM713.898 441.93C712.687 441.108 711.527 440.231 710.423 439.304L709.145 446.435L713.898 441.93Z" fill="#8BCBC7"/>
<path opacity="0.1" d="M607.941 788C697.439 788 769.991 778.672 769.991 767.166C769.991 755.66 697.439 746.332 607.941 746.332C518.444 746.332 445.892 755.66 445.892 767.166C445.892 778.672 518.444 788 607.941 788Z" fill="#8BCBC7"/>
<path d="M551.974 712.392C551.073 712.304 550.203 712.006 549.429 711.52C548.655 711.033 547.997 710.371 547.504 709.584C543.034 702.564 531.174 682.534 539.504 679.769C540.826 679.324 542.175 678.966 543.54 678.697C550.963 677.337 558.604 678.124 565.625 680.973C572.645 683.822 578.775 688.622 583.343 694.848C584.56 696.477 585.651 698.205 586.605 700.013C586.966 700.716 587.171 701.492 587.207 702.287C587.242 703.082 587.107 703.875 586.81 704.609C586.514 705.343 586.064 705.999 585.492 706.529C584.921 707.06 584.243 707.452 583.508 707.676C576.159 709.927 562.544 713.367 551.974 712.392Z" fill="#8BCBC7"/>
<path d="M543.747 711.288L589.185 702.757H657.23L647.506 718.318H553.006L543.747 711.288Z" fill="#33323D"/>
<path d="M578.275 210.739C583.374 208.049 590.021 210.739 596.091 211.371C603.957 212.165 611.75 209.228 619.667 209.453C626.873 209.678 633.752 212.628 639.011 217.748C643.397 222.19 645.951 228.226 646.133 234.585C646.329 238.366 645.465 242.126 643.646 245.409C639.868 251.935 631.259 256.361 622.33 257.101C613.537 257.758 604.782 255.372 597.433 250.317C591.57 246.18 587.482 240.672 582.517 235.892C578.987 232.452 569.697 228.111 569.625 223.642C569.573 220.545 575.054 212.411 578.275 210.739Z" fill="#4C4981"/>
<path opacity="0.1" d="M578.275 210.739C583.374 208.049 590.021 210.739 596.091 211.371C603.957 212.165 611.75 209.228 619.667 209.453C626.873 209.678 633.752 212.628 639.011 217.748C643.397 222.19 645.951 228.226 646.133 234.585C646.329 238.366 645.465 242.126 643.646 245.409C639.868 251.935 631.259 256.361 622.33 257.101C613.537 257.758 604.782 255.372 597.433 250.317C591.57 246.18 587.482 240.672 582.517 235.892C578.987 232.452 569.697 228.111 569.625 223.642C569.573 220.545 575.054 212.411 578.275 210.739Z" fill="#BA5AA5"/>
<path d="M597.185 670.777L596.483 685.781C603.309 685.27 610.155 685.135 616.994 685.374C617.551 683.123 616.994 680.755 616.54 678.461C615.705 674.045 615.424 669.535 615.703 665.044C615.786 663.811 603.007 662.547 601.717 662.482C600.148 662.418 598.517 662.193 597.763 663.897C596.927 665.762 597.278 668.741 597.185 670.777Z" fill="#4C4981"/>
<path d="M580.35 675.611L579.658 690.615C586.48 690.104 593.322 689.968 600.158 690.207C600.715 687.957 600.158 685.588 599.704 683.295C598.878 678.877 598.6 674.368 598.878 669.877C598.95 668.634 586.182 667.38 584.891 667.316C583.312 667.252 581.691 667.026 580.938 668.73C580.091 670.595 580.442 673.575 580.35 675.611Z" fill="#4C4981"/>
<path d="M612.204 670.263C611.229 670.637 610.336 671.213 609.582 671.956L604.421 676.436C602.687 677.947 600.406 679.544 598.331 678.579C597.459 678.016 596.649 677.354 595.916 676.607C595.542 676.242 595.065 676.012 594.555 675.952C594.045 675.893 593.53 676.006 593.087 676.275C592.624 676.78 592.344 677.435 592.292 678.129C590.608 687.643 589.858 697.309 590.053 706.979C591.659 707.637 593.356 708.028 595.08 708.137C595.272 708.167 595.468 708.129 595.637 708.03C595.936 707.772 595.771 707.28 595.73 706.883C595.585 705.5 597.443 704.686 598.651 705.286C599.778 706.039 600.617 707.176 601.025 708.501C601.199 709.035 601.505 709.512 601.913 709.884C602.284 710.13 602.704 710.287 603.141 710.345C605.487 710.768 607.862 710.994 610.243 711.02C621.253 711.413 632.264 711.413 643.274 711.02C644.421 711.04 645.563 710.874 646.66 710.527C647.694 710.091 648.6 709.383 649.292 708.474C649.983 707.565 650.435 706.485 650.603 705.34C650.899 703.023 650.339 700.675 649.034 698.77C648.096 697.347 646.857 696.167 645.411 695.319C644.316 694.716 643.173 694.214 641.994 693.819L636.833 691.89C633.065 690.497 629.164 689.007 626.356 686.06C624.8 684.274 623.474 682.285 622.413 680.144C620.462 676.704 617.417 668.677 612.204 670.263Z" fill="#4C4981"/>
<path opacity="0.1" d="M612.204 670.263C611.229 670.637 610.336 671.213 609.582 671.956L604.421 676.436C602.687 677.947 600.406 679.544 598.331 678.579C597.459 678.016 596.649 677.354 595.916 676.607C595.542 676.242 595.065 676.012 594.555 675.952C594.045 675.893 593.53 676.006 593.087 676.275C592.624 676.78 592.344 677.435 592.292 678.129C590.608 687.643 589.858 697.309 590.053 706.979C591.659 707.637 593.356 708.028 595.08 708.137C595.272 708.167 595.468 708.129 595.637 708.03C595.936 707.772 595.771 707.28 595.73 706.883C595.585 705.5 597.443 704.686 598.651 705.286C599.778 706.039 600.617 707.176 601.025 708.501C601.199 709.035 601.505 709.512 601.913 709.884C602.284 710.13 602.704 710.287 603.141 710.345C605.487 710.768 607.862 710.994 610.243 711.02C621.253 711.413 632.264 711.413 643.274 711.02C644.421 711.04 645.563 710.874 646.66 710.527C647.694 710.091 648.6 709.383 649.292 708.474C649.983 707.565 650.435 706.485 650.603 705.34C650.899 703.023 650.339 700.675 649.034 698.77C648.096 697.347 646.857 696.167 645.411 695.319C644.316 694.716 643.173 694.214 641.994 693.819L636.833 691.89C633.065 690.497 629.164 689.007 626.356 686.06C624.8 684.274 623.474 682.285 622.413 680.144C620.462 676.704 617.417 668.677 612.204 670.263Z" fill="#BA5AA5"/>
<path d="M661.514 427.909C661.514 430.967 661.452 434.028 661.328 437.093C660.807 455.851 659.186 474.558 656.476 493.111C655.857 497.28 655.186 501.438 654.205 505.521C652.791 511.362 650.706 517.053 650.077 523.054C649.22 531.628 651.429 540.469 649.56 548.871C648.6 553.158 646.598 557.156 645.432 561.4C644.743 563.933 644.198 566.506 643.801 569.105C642.761 575.107 641.729 581.097 640.704 587.078C640.59 587.688 640.487 588.299 640.384 588.91C639.089 595.968 636.807 602.792 633.612 609.165C631.83 613.144 630.447 617.303 629.484 621.576C627.646 628.67 625.809 635.772 623.971 642.881C621.484 652.473 618.986 662.493 620.875 672.235C617.104 671.992 613.36 671.411 609.685 670.499C604.992 669.321 600.445 667.587 596.132 665.333C595.162 648.797 595.874 632.218 596.576 615.66C597.03 605.168 597.484 594.654 599.188 584.302C601.035 573.017 603.564 562.246 605.773 551.026C609.087 534.232 612.421 517.299 612.101 500.163C611.709 477.968 612.266 455.366 621.587 435.4C622.497 433.025 623.983 430.935 625.902 429.334C627.787 428.151 629.903 427.419 632.095 427.191C639.516 425.884 647.042 425.325 654.567 425.519C657.031 425.736 659.412 426.555 661.514 427.909Z" fill="#33323D"/>
<path opacity="0.1" d="M661.514 427.909C661.514 430.963 639.176 428.627 639.073 431.681C611.636 428.38 624.488 435.003 623.28 435.893C620.679 437.79 633.169 433.974 630.568 435.893C628.307 437.554 624.797 444.006 622.465 445.538C617.025 449.236 635.161 460.617 631.125 465.9C627.461 470.68 626.604 477.196 627.089 483.262C627.574 489.328 629.277 495.233 630.186 501.267C631.874 512.701 630.697 524.393 626.769 535.218C624.415 541.702 621.112 547.746 618.109 553.93C614.826 560.735 608.756 567.498 609.479 575.085C611.141 592.168 608.271 609.38 607.497 626.527C607.198 633.086 607.208 639.773 608.963 646.085C609.624 648.497 610.542 650.833 611.027 653.287C612.256 658.978 611.286 664.872 609.665 670.52C604.972 669.342 600.424 667.609 596.112 665.355C595.141 648.818 595.854 632.239 596.556 615.681C597.01 605.189 597.464 594.676 599.167 584.323C601.015 573.038 603.544 562.268 605.753 551.047C609.066 534.254 612.4 517.321 612.08 500.184C611.688 477.989 612.245 455.387 621.566 435.421C622.476 433.046 623.963 430.957 625.881 429.355C627.767 428.173 629.882 427.44 632.075 427.212C639.496 425.906 647.021 425.346 654.546 425.54C657.016 425.748 659.404 426.56 661.514 427.909Z" fill="black"/>
<path d="M663.155 412.658C663.155 418.103 666.087 430.149 662.071 433.642C659.398 435.989 656.095 437.415 653.225 439.504C650.624 441.401 648.404 443.791 645.814 445.753C643.553 447.414 641.034 448.657 638.712 450.232C633.262 453.93 630.877 460.649 626.831 465.922C623.177 470.702 622.32 477.218 622.805 483.283C623.29 489.349 624.994 495.254 625.902 501.288C627.583 512.722 626.406 524.413 622.485 535.239C620.121 541.723 616.829 547.768 613.825 553.951C610.542 560.757 604.463 567.519 605.195 575.107C606.857 592.19 603.977 609.401 603.214 626.548C602.914 633.107 602.925 639.795 604.679 646.107C605.34 648.518 606.248 650.855 606.744 653.309C608.179 660.028 606.568 667.048 604.452 673.575C597.165 672.246 589.795 670.927 582.425 671.495C575.952 671.999 569.522 673.939 563.081 673.135C562.306 655.088 563.896 637.019 565.465 619.025C565.775 615.349 566.105 611.673 566.425 607.986C567.664 593.894 568.892 579.79 569.625 565.644C569.811 562.075 568.593 558.292 569.563 554.852C571.579 547.643 573.596 540.466 575.612 533.321C576.694 529.746 577.502 526.087 578.027 522.379C578.936 514.716 577.429 506.989 575.963 499.434C573.898 489.089 571.834 478.729 569.769 468.355C569.088 464.915 568.397 461.464 567.457 458.066C566.759 455.821 566.177 453.539 565.713 451.229C565.345 447.978 565.152 444.707 565.135 441.434C564.825 435.786 563.555 430.256 563.153 424.619C562.926 421.91 563.009 419.183 563.401 416.495C563.798 413.58 564.794 410.788 566.322 408.307C581.503 402.022 597.26 397.354 613.35 394.375C617.09 393.578 620.889 393.119 624.705 393.003C629.052 393.114 633.383 393.613 637.649 394.493C643.615 395.565 649.695 396.636 655.197 399.423C657.832 400.71 660.24 402.449 662.319 404.567C665.085 407.45 663.351 400.795 664.239 404.76C664.487 406.132 663.134 411.287 663.155 412.658Z" fill="#33323D"/>
<path d="M595.379 675.086C594.404 675.465 593.512 676.044 592.757 676.79L587.596 681.269C585.851 682.78 583.57 684.377 581.506 683.413C580.632 682.852 579.822 682.19 579.09 681.441C578.718 681.074 578.24 680.843 577.73 680.783C577.219 680.723 576.704 680.837 576.262 681.109C575.799 681.613 575.518 682.268 575.467 682.963C573.772 692.474 573.022 702.142 573.227 711.813C574.831 712.469 576.524 712.86 578.244 712.97C578.436 713.001 578.633 712.963 578.801 712.863C579.111 712.606 578.946 712.113 578.904 711.716C578.76 710.334 580.618 709.509 581.815 710.119C582.942 710.872 583.782 712.009 584.189 713.335C584.369 713.866 584.674 714.341 585.077 714.717C585.449 714.963 585.868 715.12 586.306 715.178C588.655 715.602 591.033 715.827 593.418 715.853C604.421 716.25 615.456 716.26 626.449 715.853C627.599 715.873 628.744 715.706 629.845 715.36C630.878 714.922 631.784 714.212 632.473 713.301C633.163 712.39 633.612 711.308 633.778 710.162C634.078 707.848 633.517 705.503 632.209 703.604C631.272 702.184 630.037 701.003 628.596 700.153C627.497 699.552 626.351 699.05 625.169 698.652L620.008 696.723C616.25 695.319 612.349 693.84 609.531 690.882C607.971 689.097 606.642 687.108 605.577 684.967C603.626 681.537 600.581 673.51 595.379 675.086Z" fill="#141644"/>
<path d="M646.092 238.775C645.739 240.462 644.999 242.036 643.935 243.362C641.705 246.577 639.238 249.974 635.625 251.249C633.614 251.842 631.513 252.039 629.432 251.828C611.448 250.891 594.27 243.79 580.587 231.637C587.059 227.201 590.507 219.12 591.353 211.125C591.839 204.911 591.492 198.657 590.321 192.542C590.021 190.731 589.712 188.93 589.402 187.183C588.824 183.904 587.338 181.364 590.94 180.453C593.738 179.735 597.536 180.239 600.395 180.453C606.682 180.817 613.102 182.232 618.212 186.229C619.611 187.257 620.783 188.583 621.649 190.12C623.848 194.407 622.062 199.454 621.546 204.373C621.429 205.487 621.405 206.61 621.474 207.728C621.876 213.183 625.406 217.887 629.463 221.371C633.52 224.854 638.206 227.533 642.159 231.123C644.368 233.052 646.484 235.763 646.092 238.775Z" fill="#FBBEBE"/>
<path opacity="0.1" d="M621.536 204.309C619.292 204.853 616.996 205.126 614.692 205.123C609.966 205.126 605.303 203.989 601.072 201.802C596.841 199.615 593.157 196.437 590.311 192.52C590.011 190.709 589.702 188.909 589.392 187.162C588.814 183.882 587.328 181.342 590.93 180.431C593.727 179.713 597.526 180.217 600.385 180.431C606.671 180.796 613.092 182.211 618.201 186.208C619.601 187.236 620.773 188.562 621.639 190.098C623.837 194.331 622.052 199.379 621.536 204.309Z" fill="black"/>
<path d="M614.702 203.634C631.594 203.634 645.287 189.417 645.287 171.879C645.287 154.342 631.594 140.125 614.702 140.125C597.811 140.125 584.117 154.342 584.117 171.879C584.117 189.417 597.811 203.634 614.702 203.634Z" fill="#FBBEBE"/>
<path opacity="0.1" d="M665.023 407.482C664.837 407.911 663.382 415.209 663.155 415.627C652.977 413.484 646.639 413.323 636.317 413.484C633.698 413.456 631.082 413.682 628.503 414.159C626.335 414.609 624.219 415.348 622.031 415.702C610.243 417.588 599.084 408.018 587.183 408.961C583.209 409.272 579.41 410.751 575.684 412.176C571.555 413.805 567.426 415.048 563.4 416.463C563.797 413.548 564.794 410.755 566.322 408.275C581.503 401.99 597.26 397.322 613.35 394.343C617.089 393.546 620.888 393.087 624.704 392.971C629.052 393.082 633.383 393.581 637.648 394.461C643.615 395.533 649.695 396.604 655.196 399.391C657.832 400.678 660.24 402.417 662.319 404.535C665.023 407.482 664.187 403.517 665.023 407.482Z" fill="black"/>
<path d="M604.493 236.717C603.853 233.502 601.737 230.941 599.652 228.519C595.716 223.946 591.649 219.491 587.451 215.155C586.095 213.596 584.488 212.295 582.703 211.307C581.804 210.822 580.804 210.573 579.791 210.582C578.778 210.592 577.782 210.859 576.892 211.361C575.302 212.432 574.497 214.319 573.227 215.755C570.481 218.873 565.702 219.613 563.39 223.096C562.879 224.072 562.289 225 561.625 225.872C560.632 226.75 559.443 227.358 558.167 227.64L543.592 232.173C541.878 232.698 539.979 233.384 539.164 235.035C538.812 235.913 538.593 236.842 538.513 237.789C537.357 244.637 531.546 249.395 526.436 253.864C524.661 255.418 522.865 257.133 522.111 259.405C521.358 261.677 521.75 264.088 522.214 266.403C523.381 272.287 525.084 278.192 528.408 283.132C530.596 286.476 533.466 289.348 535.272 292.928C536.8 296.344 537.763 300.004 538.121 303.752C539.153 310.793 539.69 317.888 540.268 324.982C540.774 331.22 540.051 338.229 541.796 344.273C543.922 351.614 551.509 355.794 554.874 362.621C556.133 365.49 557.005 368.527 557.465 371.644L560.696 388.641C561.282 391.217 561.604 393.851 561.656 396.497C561.573 402.745 558.487 408.832 559.457 414.995C564.918 412.851 570.182 411.383 575.632 409.25C579.369 407.782 583.168 406.292 587.152 405.982C599.043 405.06 610.202 414.619 621.99 412.733C624.178 412.39 626.294 411.662 628.462 411.201C631.041 410.722 633.656 410.489 636.276 410.504C646.668 410.341 657.047 411.314 667.243 413.408C669.307 409.818 669.648 405.414 669.142 401.266C668.636 397.119 667.346 393.132 666.334 389.081C663.665 378.453 662.889 367.408 664.043 356.49C664.434 353.746 664.672 350.98 664.755 348.206C664.755 337.854 658.706 328.155 659.263 317.813C659.811 307.642 671 301.952 675.624 292.949C676.688 291.154 677.222 289.076 677.162 286.969C676.935 284.826 675.635 282.897 674.798 280.882C672.734 275.941 673.498 270.251 672.321 265.021C671.898 263.188 671.289 261.42 670.855 259.577C669.823 254.497 670.762 249.095 669.513 244.058C668.543 240.157 666.293 236.739 663.898 233.577C659.852 228.219 655.124 223.214 649.22 220.256C643.315 217.298 636.049 216.666 630.278 219.902C629.381 220.367 628.587 221.02 627.946 221.821C627.342 222.776 626.909 223.836 626.666 224.95C624.609 232.099 621.765 238.978 618.191 245.452C616.854 245.662 615.489 245.562 614.193 245.16C612.898 244.758 611.704 244.063 610.697 243.126C608.612 241.283 605.04 239.461 604.493 236.717Z" fill="#7478D7"/>
<path d="M599.972 181.407C600.542 179.983 600.796 178.445 600.715 176.906C600.634 175.363 601.04 173.836 601.872 172.555C603.069 171.043 605.216 170.636 606.362 169.104C607.673 167.357 607.229 164.881 607.621 162.673C607.969 160.922 608.867 159.34 610.175 158.176C611.483 157.012 613.126 156.332 614.847 156.243C617.407 156.168 619.812 157.433 622.33 157.947C625.602 158.622 628.978 158.012 632.26 157.411C634.707 156.961 637.422 156.393 638.949 154.4C639.878 153.052 640.487 151.495 640.725 149.856C641.272 147.295 641.685 144.444 640.415 142.183C639.145 139.921 636.462 138.817 635.047 136.62C633.819 134.702 633.716 132.173 632.467 130.265C630.526 127.286 626.48 126.761 623.043 127.211C619.605 127.661 616.116 128.797 612.72 128.036C608.984 127.2 605.288 124.146 601.768 125.678C599.177 126.814 598.094 129.912 596.504 132.323C595.129 134.403 593.254 136.073 591.064 137.167C587.699 138.85 583.756 139.085 580.525 141.036C579.066 141.936 577.81 143.153 576.845 144.603C575.879 146.053 575.226 147.702 574.93 149.438C574.78 150.071 574.801 150.735 574.992 151.356C575.225 151.831 575.498 152.283 575.808 152.707C577.15 154.914 576.283 157.862 574.982 160.091C573.681 162.32 571.947 164.377 571.534 167.003C571.122 169.629 572.102 172.19 573.372 174.451C574.799 176.606 576.072 178.866 577.181 181.214C578.285 184.011 578.492 187.108 579.596 189.895C580.479 192.048 581.866 193.938 583.631 195.394C585.395 196.85 587.482 197.826 589.702 198.232C590.116 198.349 590.549 198.375 590.974 198.309C591.399 198.243 591.806 198.085 592.169 197.847C592.655 197.357 592.977 196.719 593.087 196.025C593.386 194.841 593.583 193.633 593.676 192.413C593.851 190.013 593.676 187.237 594.708 185.018C595.988 182.243 598.589 184.118 599.972 181.407Z" fill="#33323D"/>
<path opacity="0.1" d="M640.363 142.268C639.083 139.996 636.41 138.903 634.996 136.706C633.767 134.788 633.664 132.259 632.415 130.351C631.483 128.996 630.113 128.034 628.555 127.64C629.804 129.547 629.897 132.076 631.135 133.995C632.539 136.192 635.212 137.274 636.492 139.557C637.772 141.84 637.349 144.669 636.802 147.23C636.566 148.868 635.961 150.425 635.037 151.774C633.447 153.757 630.784 154.336 628.338 154.786C625.055 155.386 621.68 155.986 618.408 155.322C615.9 154.796 613.494 153.543 610.924 153.618C609.221 153.714 607.595 154.391 606.3 155.544C605.005 156.697 604.112 158.261 603.761 159.994C603.368 162.138 603.761 164.645 602.501 166.424C601.345 167.957 599.198 168.364 598.011 169.865C597.178 171.149 596.769 172.68 596.845 174.226C596.929 175.761 596.678 177.296 596.112 178.717C594.718 181.439 592.117 179.553 590.806 182.328C589.774 184.547 589.949 187.323 589.774 189.723C589.681 190.946 589.484 192.158 589.185 193.345C589.075 194.037 588.757 194.674 588.277 195.167C587.914 195.406 587.507 195.563 587.083 195.63C586.658 195.696 586.225 195.67 585.81 195.553C584.742 195.359 583.702 195.028 582.713 194.567C584.633 196.483 587.059 197.763 589.681 198.243C590.095 198.36 590.529 198.386 590.954 198.32C591.378 198.253 591.785 198.096 592.148 197.857C592.634 197.368 592.956 196.729 593.067 196.035C593.365 194.852 593.562 193.643 593.655 192.424C593.831 190.023 593.655 187.247 594.687 185.029C596.009 182.253 598.61 184.129 599.993 181.417C600.562 179.994 600.816 178.456 600.736 176.916C600.655 175.374 601.061 173.846 601.892 172.565C603.09 171.054 605.237 170.647 606.382 169.114C607.693 167.367 607.249 164.892 607.642 162.684C607.998 160.943 608.901 159.373 610.209 158.221C611.516 157.069 613.154 156.4 614.867 156.318C617.427 156.232 619.832 157.497 622.351 158.012C625.623 158.687 628.998 158.076 632.281 157.476C634.727 157.026 637.442 156.458 638.97 154.464C639.899 153.116 640.507 151.559 640.745 149.92C641.22 147.38 641.633 144.53 640.363 142.268Z" fill="black"/>
<path d="M574.332 735.937C574.332 746.75 567.044 755.517 558.064 755.517C549.083 755.517 541.806 746.75 541.806 735.937V735.787C541.878 725.07 549.135 716.357 558.064 716.357C563.586 716.357 568.458 719.658 571.39 724.738C573.341 728.12 574.358 731.994 574.332 735.937Z" fill="#33323D"/>
<path d="M703.959 743.824C703.959 764.648 693.585 781.538 680.796 781.538C668.006 781.538 657.653 764.648 657.653 743.824C657.653 732.036 660.956 721.544 666.138 714.642C670.143 709.284 675.222 706.068 680.796 706.068C681.563 706.067 682.329 706.124 683.087 706.24C687.681 706.979 691.902 709.905 695.298 714.385C695.777 715 696.225 715.64 696.64 716.303C701.141 723.226 703.959 733 703.959 743.824Z" fill="#33323D"/>
<path d="M690.168 700.657L669.926 702.757L667.325 680.294L667.15 678.826L663.475 647.168L663.31 645.7L644.719 485.555L644.317 482.147L633.231 386.563L632.962 384.28L631.806 374.292L631.032 367.658H647.238L648.115 374.527L648.26 375.62L648.662 378.696L662.567 486.574L662.938 489.467L682.767 643.267L687.113 676.972L690.168 700.657Z" fill="#33323D"/>
<path opacity="0.1" d="M680.775 706.122C681.542 706.12 682.308 706.177 683.067 706.293L682.489 706.701C680.642 708.122 679.191 710.026 678.284 712.22C677.377 714.413 677.047 716.817 677.327 719.186L680.61 751.594C680.62 751.762 680.62 751.93 680.61 752.098C680.568 753.282 680.114 754.41 679.331 755.272C678.548 756.134 677.49 756.672 676.354 756.785C675.218 756.897 674.081 756.578 673.155 755.885C672.229 755.192 671.577 754.174 671.32 753.02C669.968 745.593 667.408 730.417 666.252 716.71C666.19 715.982 666.148 715.296 666.148 714.642C670.123 709.326 675.201 706.122 680.775 706.122Z" fill="black"/>
<path opacity="0.1" d="M686.617 716.357L685.905 716.143C685.688 715.553 685.492 714.974 685.275 714.438C685.754 715.054 686.202 715.694 686.617 716.357Z" fill="black"/>
<path d="M679.629 697.291C679.629 697.291 663.165 696.219 664.786 715.231C665.952 728.938 668.512 744.103 669.854 751.53C670.081 752.774 670.764 753.878 671.759 754.61C672.755 755.342 673.985 755.644 675.191 755.452C676.391 755.263 677.474 754.601 678.215 753.602C678.955 752.604 679.296 751.347 679.165 750.094L675.882 717.686C675.599 715.315 675.928 712.908 676.835 710.713C677.741 708.517 679.194 706.611 681.043 705.19C684.935 702.35 690.127 702.178 694.462 714.642L697.435 715.489C697.435 715.489 701.234 695.041 679.629 697.291Z" fill="#504F60"/>
<path opacity="0.1" d="M662.556 486.573C661.74 486.74 660.911 486.826 660.079 486.831H654.278C651.006 486.82 647.853 485.56 645.418 483.291C642.984 481.023 641.438 477.903 641.076 474.528L632.199 390.646C631.971 388.468 632.244 386.265 632.998 384.218C633.751 382.172 634.961 380.34 636.53 378.875C638.099 377.41 639.98 376.352 642.02 375.79C644.059 375.228 646.198 375.177 648.26 375.642L662.556 486.573Z" fill="black"/>
<path opacity="0.1" d="M662.928 489.467C661.993 489.691 661.037 489.802 660.079 489.799H654.278C652.487 489.797 650.716 489.415 649.073 488.678C647.43 487.941 645.948 486.864 644.719 485.513L644.317 482.094L633.23 386.519C634.477 383.513 636.717 381.068 639.546 379.624C642.375 378.18 645.608 377.832 648.662 378.642L662.556 486.531L662.928 489.467Z" fill="black"/>
<path d="M632.198 392.125C634.335 412.305 638.846 454.969 641.076 476.028C641.432 479.404 642.976 482.525 645.413 484.792C647.849 487.059 651.006 488.311 654.278 488.31H660.068C662.834 488.348 665.539 487.473 667.793 485.811C670.048 484.148 671.735 481.784 672.61 479.061C672.968 477.904 673.152 476.697 673.157 475.481C673.157 469.051 666.51 410.804 664.445 392.843C664.248 391.063 663.715 389.341 662.875 387.776C662.036 386.211 660.906 384.833 659.552 383.722C656.837 381.486 653.891 379.571 650.768 378.01C641.488 373.531 631.084 381.558 632.198 392.125Z" fill="#8BCBC7"/>
<path opacity="0.1" d="M571.39 724.738L567.034 724.545C563.158 724.363 559.314 725.341 555.958 727.363L542.333 735.508C542.157 735.605 541.971 735.712 541.806 735.787C541.878 725.07 549.135 716.357 558.064 716.357C563.576 716.357 568.458 719.658 571.39 724.738Z" fill="black"/>
<path opacity="0.1" d="M687.113 678.451L667.325 680.294L667.15 678.826L663.475 647.168L682.767 644.756L687.113 678.451Z" fill="black"/>
<path d="M667.129 678.826C670.308 727.052 637.783 726.163 637.783 726.163L567.044 723.012C563.166 722.839 559.321 723.817 555.958 725.831L542.333 733.986C541.101 734.723 539.685 735.059 538.268 734.95C536.851 734.841 535.498 734.292 534.384 733.375C532.937 732.182 531.995 730.45 531.758 728.547C531.521 726.644 532.007 724.72 533.115 723.183L538.875 715.21C540.067 713.562 541.633 712.245 543.434 711.377C545.235 710.51 547.215 710.118 549.197 710.237L623.218 714.621C653.153 715.178 663.31 645.657 663.31 645.657L682.778 643.224L687.113 676.929L667.16 678.783L667.129 678.826Z" fill="#504F60"/>
<path opacity="0.1" d="M648.115 374.527L631.806 374.292L631.032 367.658H647.238L648.115 374.527Z" fill="black"/>
<path d="M569.398 361.431L706.25 364.989C707.359 365.031 708.41 365.518 709.18 366.347C709.95 367.177 710.38 368.284 710.379 369.437C710.379 370.025 710.267 370.607 710.048 371.149C709.83 371.692 709.509 372.184 709.106 372.597C708.702 373.01 708.224 373.335 707.698 373.554C707.173 373.773 706.61 373.882 706.044 373.873L569.201 371.891C568.079 371.874 567.008 371.399 566.22 370.569C565.432 369.738 564.99 368.62 564.99 367.454V365.868C564.99 365.273 565.105 364.685 565.328 364.137C565.551 363.589 565.878 363.094 566.289 362.68C566.7 362.266 567.187 361.942 567.721 361.728C568.255 361.513 568.825 361.412 569.398 361.431Z" fill="#33323D"/>
<path d="M578.843 348.796C583.611 349.803 588.886 349.535 592.881 352.439C596.442 355.022 598.166 359.684 598.362 364.228C598.558 368.772 597.412 373.177 596.297 377.539C595.947 378.91 595.265 380.572 593.882 380.614C592.499 380.657 591.818 379.2 590.713 378.471C588.339 376.971 584.984 379.189 582.589 377.732C581.91 377.206 581.281 376.614 580.711 375.963C579.771 375.11 578.605 374.572 577.365 374.419C576.126 374.266 574.87 374.505 573.764 375.106C574.071 373.407 574.008 371.658 573.58 369.988C573.151 368.317 572.367 366.768 571.286 365.453C570.205 364.138 568.854 363.092 567.332 362.39C565.81 361.689 564.156 361.35 562.492 361.399C560.634 361.463 558.642 361.967 557.021 361.034C554.41 359.556 554.627 355.483 555.989 352.761C557.971 348.935 559.478 345.184 563.979 345.184C569.14 345.206 573.898 347.756 578.843 348.796Z" fill="#FBBEBE"/>
<path d="M672.053 354.122L671.991 364.539C671.991 368.461 671.991 372.577 673.859 375.995C674.829 377.774 676.502 379.382 678.483 379.339C679.227 379.339 679.949 379.082 680.692 379.114C682.85 379.2 684.821 381.558 686.834 380.775C687.515 380.507 688.063 379.907 688.764 379.703C689.797 379.382 690.984 379.982 692.026 379.65C693.069 379.318 693.688 378.074 694.091 376.981C696.155 371.751 698.22 365.986 696.723 360.563C695.892 358.121 694.705 355.826 693.203 353.758L686.514 343.48C686.248 342.991 685.873 342.576 685.42 342.269C684.953 342.042 684.437 341.946 683.923 341.99C680.599 341.99 677.492 343.619 674.52 345.205C671.547 346.792 672.073 351.132 672.053 354.122Z" fill="#FBBEBE"/>
<path d="M678.607 296.207C678.978 298.495 679.609 300.729 680.486 302.863C681.663 305.295 683.748 307.342 684.119 310.043C684.563 313.258 682.54 316.966 684.47 319.506C685.255 320.578 686.535 321.081 687.361 322.11C689.343 324.65 687.454 328.39 687.743 331.638C688.001 334.606 690.137 337.071 690.726 339.997C691.314 342.923 690.323 346.545 692.119 349.01C690.292 346.02 686.287 345.431 682.922 346.009C680.16 346.508 677.523 347.581 675.169 349.163C672.816 350.744 670.794 352.803 669.224 355.215C669.727 350.968 669.289 346.657 667.944 342.612C666.737 338.99 664.796 335.474 664.961 331.648C665.064 329.387 665.911 327.169 665.704 324.907C665.384 321.371 662.608 318.681 660.213 316.184C657.302 313.172 654.464 309.593 654.174 305.327C653.906 301.373 655.919 297.633 658.221 294.46C659.975 291.789 662.313 289.586 665.044 288.03C666.85 287.109 672.321 283.25 673.518 283.743C676.089 284.751 678.04 293.764 678.607 296.207Z" fill="#7478D7"/>
<path d="M527.448 263.949C524.66 264.916 522.322 266.931 520.893 269.597C519.493 272.248 518.342 275.033 517.456 277.913C515.282 284.037 512.588 289.948 509.404 295.575C506.989 299.862 504.243 303.977 502.943 308.703C501.776 312.84 501.694 317.341 499.774 321.156C498.834 323.021 497.493 324.672 496.78 326.644C495.851 329.194 496.089 332.002 496.347 334.746L497.018 341.99C497.097 344.371 497.615 346.714 498.545 348.892C499.836 351.453 502.189 353.179 504.46 354.904L514.958 362.631C516.963 364.253 519.176 365.577 521.533 366.564C528.366 369.062 535.737 365.621 542.921 364.678C547.876 364.035 552.892 364.582 557.857 365.139C557.444 360.927 557.579 356.469 559.54 352.761C561.501 349.053 567.478 344.187 571.431 345.195C567.509 341.755 561.016 343.673 556.67 340.811C554.926 339.665 553.439 338.143 551.726 336.932C546.327 333.138 538.586 332.495 535.107 326.761C534.883 326.447 534.741 326.078 534.694 325.69C534.632 324.843 535.324 324.168 535.922 323.546C540.278 319.26 542.456 313.076 542.993 306.892C543.53 300.708 542.58 294.514 541.496 288.405C540.619 283.508 539.638 278.546 537.491 274.087C535.344 269.629 531.948 265.61 527.448 263.949Z" fill="#7478D7"/>
<path d="M825.782 565.221C825.782 565.221 834.247 564.953 836.796 563.077C839.346 561.202 849.813 558.941 850.442 562.006C851.072 565.071 863.159 577.009 853.611 577.127C844.063 577.245 831.408 575.584 828.838 573.976C826.268 572.369 825.782 565.221 825.782 565.221Z" fill="#A8A8A8"/>
<path opacity="0.1" d="M950.858 663.202C970.417 663.202 986.273 660.419 986.273 656.986C986.273 653.553 970.417 650.77 950.858 650.77C931.298 650.77 915.442 653.553 915.442 656.986C915.442 660.419 931.298 663.202 950.858 663.202Z" fill="#8BCBC7"/>
<path d="M912.533 635.3C912.533 635.3 932.733 634.657 938.824 630.156C944.914 625.655 969.904 620.275 971.411 627.498C972.918 634.722 1001.77 663.4 978.957 663.593C956.144 663.786 925.962 659.896 919.893 656.091C913.823 652.287 912.533 635.3 912.533 635.3Z" fill="#A8A8A8"/>
<path opacity="0.2" d="M979.369 661.535C956.557 661.728 926.375 657.848 920.295 654.033C915.671 651.107 913.823 640.605 913.214 635.76H912.533C912.533 635.76 913.813 652.672 919.893 656.519C925.972 660.367 956.155 664.236 978.957 664.021C985.542 663.957 987.823 661.524 987.689 657.923C986.781 660.131 984.273 661.492 979.369 661.535Z" fill="black"/>
<g opacity="0.1">
<path opacity="0.1" d="M812.89 276.992C815.161 284.322 808.967 309.839 808.967 309.839C808.967 309.839 789.603 292.864 787.291 285.533C786.196 282.014 786.492 278.188 788.114 274.896C789.736 271.604 792.552 269.116 795.941 267.979C799.33 266.842 803.015 267.149 806.186 268.833C809.357 270.518 811.754 273.441 812.849 276.96L812.89 276.992Z" fill="#8BCBC7"/>
<path opacity="0.1" d="M812.26 184.011C808.482 190.634 785.99 202.766 785.99 202.766C785.99 202.766 785.371 176.455 789.087 169.832C790.898 166.649 793.853 164.343 797.301 163.421C800.75 162.5 804.41 163.038 807.476 164.919C810.542 166.799 812.763 169.867 813.651 173.447C814.538 177.028 814.02 180.828 812.209 184.011H812.26Z" fill="#8BCBC7"/>
<path opacity="0.1" d="M807.553 515.027C805.241 519.11 791.389 526.569 791.389 526.569C791.389 526.569 791.007 510.376 793.329 506.303C794.443 504.345 796.261 502.926 798.383 502.36C800.505 501.793 802.756 502.124 804.642 503.281C806.529 504.438 807.895 506.325 808.441 508.528C808.987 510.731 808.667 513.069 807.553 515.027Z" fill="#8BCBC7"/>
<path opacity="0.1" d="M958.321 474.442C955.998 478.514 942.156 485.984 942.156 485.984C942.156 485.984 941.774 469.791 944.097 465.707C945.212 463.749 947.031 462.331 949.154 461.765C951.277 461.2 953.529 461.532 955.415 462.691C957.301 463.849 958.667 465.738 959.212 467.941C959.757 470.145 959.436 472.484 958.321 474.442Z" fill="#8BCBC7"/>
<path opacity="0.1" d="M796.292 409.4C792.524 416.034 770.032 428.155 770.032 428.155C770.032 428.155 769.402 401.855 773.129 395.222C774.025 393.646 775.212 392.269 776.621 391.17C778.03 390.071 779.634 389.27 781.341 388.814C783.048 388.359 784.825 388.256 786.571 388.514C788.316 388.771 789.995 389.382 791.513 390.313C793.03 391.244 794.356 392.476 795.415 393.939C796.474 395.403 797.245 397.068 797.684 398.84C798.123 400.613 798.221 402.457 797.973 404.269C797.726 406.081 797.137 407.825 796.24 409.4H796.292Z" fill="#8BCBC7"/>
</g>
</g>
<defs>
<clipPath id="clip0">
<rect width="1154" height="788" fill="white"/>
</clipPath>
</defs>
</svg>
